<svg width="1920" height="654" viewBox="0 0 1920 654" fill="none" xmlns="http://www.w3.org/2000/svg">
<path d="M-39 277.333C-39 191.012 21.2615 116.403 105.651 98.2439L328.667 50.2537C379.837 39.2426 433.278 50.3009 475.876 80.7148L711.383 248.862C746.377 273.846 788.945 285.935 831.847 283.072L1573.73 233.564C1606.07 231.406 1637.29 220.832 1664.29 202.892L1892.54 51.2131C1909.69 39.8164 1920 20.5917 1920 0V0V294.915C1920 405.157 1824.66 491.206 1714.99 479.941L1606.61 468.807C1549.45 462.936 1492.78 483.814 1453.09 525.369L1385.8 595.828C1335.64 648.349 1259.5 666.871 1190.82 643.258L523.685 413.894C492.459 403.159 458.937 400.929 426.564 407.435L180.283 456.931C66.8798 479.721 -39 393.003 -39 277.333V277.333Z" fill="#30D5AE" fill-opacity="0.4"/>
<path d="M-39 277.333C-39 191.012 21.2615 116.403 105.651 98.2439L328.667 50.2537C379.837 39.2426 433.278 50.3009 475.876 80.7148L711.383 248.862C746.377 273.846 788.945 285.935 831.847 283.072L1573.73 233.564C1606.07 231.406 1637.29 220.832 1664.29 202.892L1892.54 51.2131C1909.69 39.8164 1920 20.5917 1920 0V0V294.915C1920 405.157 1824.66 491.206 1714.99 479.941L1606.61 468.807C1549.45 462.936 1492.78 483.814 1453.09 525.369L1385.8 595.828C1335.64 648.349 1259.5 666.871 1190.82 643.258L523.685 413.894C492.459 403.159 458.937 400.929 426.564 407.435L180.283 456.931C66.8798 479.721 -39 393.003 -39 277.333V277.333Z" fill="url(#paint0_linear)" fill-opacity="0.6"/>
<defs>
<linearGradient id="paint0_linear" x1="968.559" y1="123.377" x2="1450.07" y2="564.551" gradientUnits="userSpaceOnUse">
<stop stop-color="#60FFD6"/>
<stop offset="1" stop-color="#F4B1FF"/>
</linearGradient>
</defs>
</svg>
