<svg width="1908" height="1315" viewBox="0 0 1908 1315" fill="none" xmlns="http://www.w3.org/2000/svg">
<path d="M-6.0851 307.373L25.3646 299.005L50.0617 391.823L18.612 400.191L-6.0851 307.373ZM115.803 274.941L140.295 268.424L173.988 297.606L188.583 255.576L213.075 249.059L237.772 341.877L208.131 349.764L199.245 316.366L187.725 349.233L161.255 326.475L170.141 359.873L140.5 367.759L115.803 274.941ZM331.019 217.676L353.284 211.752L413.188 295.203L383.965 302.978L378.682 295.443L350.572 302.923L349.732 312.087L320.509 319.863L331.019 217.676ZM365.446 277.061L354.852 262.445L352.922 280.393L365.446 277.061ZM531.904 198.05C529.839 197.01 527.455 196.452 524.753 196.377C522.026 196.208 519.456 196.445 517.044 197.087C514.354 197.803 512.031 198.967 510.076 200.58C508.097 202.1 506.506 203.964 505.305 206.171C504.173 208.26 503.463 210.634 503.177 213.293C502.891 215.952 503.119 218.673 503.859 221.457C504.6 224.24 505.801 226.702 507.464 228.842C509.126 230.983 511.073 232.7 513.305 233.993C515.512 235.194 517.91 235.996 520.501 236.4C523.16 236.686 525.835 236.471 528.525 235.755C531.68 234.916 534.383 233.501 536.635 231.511C538.862 229.428 540.595 226.98 541.833 224.167L533.484 226.389L528.3 206.907L564.064 197.391L572.284 228.284C571.162 232.655 569.536 236.813 567.407 240.757C565.253 244.609 562.617 248.141 559.498 251.355C556.472 254.545 552.986 257.31 549.04 259.651C545.093 261.993 540.847 263.769 536.301 264.978C529.621 266.755 522.98 267.182 516.376 266.257C509.772 265.331 503.663 263.281 498.05 260.106C492.53 256.906 487.681 252.683 483.503 247.436C479.418 242.165 476.463 236.097 474.636 229.232C472.859 222.553 472.386 215.923 473.219 209.344C474.051 202.765 475.974 196.74 478.989 191.269C482.071 185.68 486.155 180.868 491.241 176.833C496.394 172.68 502.311 169.715 508.99 167.938C514.186 166.555 518.821 165.868 522.896 165.877C526.971 165.885 530.48 166.193 533.424 166.801C536.88 167.471 539.863 168.415 542.373 169.635L531.904 198.05ZM642.098 134.905L673.548 126.536L698.245 219.355L666.795 227.723L642.098 134.905ZM763.987 102.473L788.339 95.9928L823.46 124.943L813.945 89.1798L843.029 81.4411L867.726 174.26L843.234 180.776L808.289 151.928L817.768 187.552L788.684 195.291L763.987 102.473ZM933.439 57.3848L988.128 42.8331L994.608 67.1858L969.559 73.8507L972.299 84.1484L996.93 77.5946L1003.08 100.695L978.446 107.249L981.297 117.964L1007.32 111.04L1013.8 135.392L958.136 150.203L933.439 57.3848Z" fill="#F7F7F7"/>
<path d="M1120.16 44.5325L1174.24 61.1917L1166.83 85.2751L1142.05 77.6449L1138.92 87.8288L1163.28 95.3318L1156.24 118.177L1131.88 110.674L1128.62 121.27L1154.35 129.197L1146.93 153.281L1091.89 136.325L1120.16 44.5325ZM1227.54 146.919C1229.36 148.183 1231.32 149.338 1233.4 150.383C1235.1 151.407 1237.05 152.41 1239.26 153.391C1241.56 154.401 1243.9 155.274 1246.29 156.009C1250.51 157.309 1253.1 156.399 1254.06 153.279C1254.43 152.087 1254.15 150.696 1253.23 149.108C1252.35 147.428 1251.12 145.543 1249.55 143.453C1248.11 141.3 1246.52 138.953 1244.79 136.411C1243.15 133.898 1241.69 131.138 1240.41 128.131C1239.22 125.152 1238.43 121.997 1238.05 118.665C1237.7 115.242 1238.12 111.604 1239.3 107.751C1240.63 103.438 1242.58 99.8712 1245.16 97.0487C1247.74 94.2263 1250.74 92.138 1254.17 90.7839C1257.6 89.4298 1261.32 88.7675 1265.33 88.7969C1269.46 88.7628 1273.64 89.3958 1277.86 90.6958C1280.06 91.374 1282.22 92.1899 1284.34 93.1433C1286.48 94.0051 1288.4 94.7961 1290.08 95.5166C1292.02 96.4135 1293.9 97.2964 1295.75 98.1651L1287.82 123.9C1287.11 123.582 1286.32 123.236 1285.43 122.862C1284.72 122.544 1283.92 122.198 1283.03 121.823C1282.15 121.449 1281.2 121.106 1280.19 120.796C1279.64 120.626 1278.93 120.46 1278.08 120.297C1277.25 120.043 1276.45 119.895 1275.66 119.852C1274.87 119.809 1274.12 119.933 1273.43 120.222C1272.74 120.511 1272.27 121.068 1272.01 121.894C1271.79 122.628 1272.1 123.729 1272.96 125.198C1273.9 126.694 1275.02 128.445 1276.31 130.45C1277.69 132.483 1279.14 134.788 1280.66 137.365C1282.27 139.969 1283.56 142.779 1284.54 145.793C1285.61 148.835 1286.27 152.1 1286.5 155.587C1286.82 159.102 1286.39 162.786 1285.2 166.639C1283.96 170.676 1282.14 174.286 1279.76 177.468C1277.4 180.559 1274.43 183.011 1270.86 184.823C1267.41 186.573 1263.35 187.532 1258.68 187.699C1253.97 187.959 1248.73 187.199 1242.95 185.419C1239.47 184.345 1236.27 183.158 1233.35 181.858C1230.5 180.679 1228 179.506 1225.85 178.341C1223.33 177.063 1221.07 175.764 1219.06 174.443L1227.54 146.919ZM1361.31 169.137C1363.57 161.797 1366.89 155.587 1371.26 150.507C1375.67 145.335 1380.73 141.317 1386.43 138.453C1392.13 135.589 1398.26 133.96 1404.81 133.567C1411.39 133.082 1417.98 133.857 1424.59 135.892C1429.82 137.502 1434.29 139.434 1438.02 141.687C1441.84 143.968 1445.02 146.203 1447.56 148.391C1450.5 150.905 1452.94 153.415 1454.88 155.921L1432.59 176.93C1431.46 175.376 1430.18 173.827 1428.75 172.281C1427.41 171.066 1425.74 169.799 1423.74 168.478C1421.86 167.094 1419.54 165.979 1416.78 165.131C1413.94 164.255 1411.17 163.954 1408.47 164.228C1405.78 164.503 1403.24 165.229 1400.87 166.407C1398.59 167.613 1396.58 169.254 1394.84 171.328C1393.12 173.311 1391.85 175.633 1391.03 178.293C1390.21 180.954 1389.94 183.632 1390.22 186.329C1390.61 188.962 1391.46 191.432 1392.75 193.74C1394.05 196.049 1395.78 198.089 1397.95 199.861C1400.12 201.634 1402.67 202.972 1405.6 203.876C1408.54 204.781 1411.27 205.219 1413.79 205.191C1416.31 205.164 1418.49 204.932 1420.33 204.495C1422.48 204.051 1424.45 203.353 1426.25 202.4L1432.86 232.311C1429.76 233.566 1426.27 234.451 1422.4 234.965C1419.06 235.345 1415.17 235.45 1410.7 235.279C1406.23 235.108 1401.34 234.203 1396.01 232.564C1388.86 230.36 1382.61 227.179 1377.26 223.02C1371.94 218.769 1367.72 213.855 1364.62 208.279C1361.52 202.702 1359.63 196.596 1358.96 189.961C1358.32 183.235 1359.1 176.293 1361.31 169.137ZM1555.37 178.587L1577.39 185.369L1583.93 287.886L1555.03 278.984L1554.55 269.794L1526.75 261.232L1521.18 268.556L1492.28 259.654L1555.37 178.587ZM1553.07 247.19L1551.84 229.181L1540.69 243.375L1553.07 247.19ZM1740.98 274.031C1739.03 280.362 1736.26 285.436 1732.68 289.253C1729.12 292.979 1724.99 295.624 1720.29 297.19C1715.68 298.783 1710.61 299.431 1705.07 299.133C1699.63 298.863 1693.98 297.824 1688.1 296.015L1681.36 317.897L1652.05 308.868L1680.32 217.076L1709.64 226.105C1715.51 227.913 1720.77 230.237 1725.42 233.076C1730.16 235.943 1733.99 239.332 1736.9 243.243C1739.91 247.182 1741.82 251.739 1742.64 256.913C1743.48 261.995 1742.93 267.701 1740.98 274.031ZM1695.73 271.244L1696.97 271.625C1700.83 272.812 1703.85 272.789 1706.03 271.554C1708.34 270.256 1709.99 268.002 1710.98 264.79C1711.97 261.579 1711.86 258.834 1710.66 256.554C1709.57 254.21 1707.1 252.445 1703.25 251.258L1702.01 250.876L1695.73 271.244ZM1824.73 261.557L1878.82 278.216L1871.4 302.3L1846.63 294.669L1843.49 304.853L1867.85 312.356L1860.81 335.201L1836.45 327.698L1833.19 338.295L1858.93 346.222L1851.51 370.305L1796.46 353.349L1824.73 261.557Z" fill="#F7F7F7"/>
<path d="M999.271 1257.17C997.978 1252.22 997.681 1247.53 998.381 1243.12C999.064 1238.64 1000.52 1234.59 1002.75 1230.97C1004.98 1227.34 1007.88 1224.27 1011.46 1221.75C1015.01 1219.17 1019.02 1217.29 1023.48 1216.13C1027.01 1215.21 1030.23 1214.73 1033.13 1214.7C1036.1 1214.66 1038.68 1214.81 1040.89 1215.16C1043.44 1215.55 1045.7 1216.12 1047.68 1216.86L1042.41 1236.59C1041.23 1236.1 1039.96 1235.67 1038.61 1235.3C1037.42 1235.08 1036.03 1234.94 1034.43 1234.9C1032.88 1234.78 1031.17 1234.96 1029.32 1235.44C1027.4 1235.94 1025.72 1236.74 1024.29 1237.84C1022.86 1238.95 1021.67 1240.25 1020.74 1241.75C1019.87 1243.23 1019.31 1244.87 1019.05 1246.65C1018.77 1248.38 1018.87 1250.14 1019.33 1251.94C1019.8 1253.73 1020.59 1255.35 1021.69 1256.78C1022.84 1258.13 1024.18 1259.24 1025.73 1260.09C1027.27 1260.94 1028.97 1261.49 1030.82 1261.74C1032.67 1261.98 1034.59 1261.85 1036.57 1261.33C1038.55 1260.81 1040.25 1260.1 1041.67 1259.2C1043.09 1258.3 1044.24 1257.41 1045.14 1256.51C1046.2 1255.51 1047.07 1254.42 1047.76 1253.25L1061.99 1267.89C1060.68 1269.69 1059.01 1271.41 1056.99 1273.06C1055.24 1274.45 1053.07 1275.87 1050.47 1277.34C1047.88 1278.81 1044.79 1280.02 1041.2 1280.96C1036.37 1282.22 1031.71 1282.61 1027.21 1282.13C1022.71 1281.58 1018.6 1280.27 1014.88 1278.2C1011.16 1276.13 1007.95 1273.33 1005.25 1269.8C1002.52 1266.21 1000.53 1262 999.271 1257.17ZM1103.5 1196.83L1123.28 1191.67L1128.79 1212.75L1139.84 1209.87L1134.34 1188.78L1154.22 1183.59L1170.39 1245.55L1150.51 1250.74L1144.52 1227.79L1133.47 1230.68L1139.46 1253.62L1119.67 1258.79L1103.5 1196.83ZM1233 1163.03L1247.87 1159.15L1287.54 1214.97L1268.03 1220.06L1264.53 1215.02L1245.77 1219.92L1245.18 1226.03L1225.68 1231.12L1233 1163.03ZM1255.77 1202.73L1248.75 1192.95L1247.41 1204.91L1255.77 1202.73ZM1326.63 1138.59L1347.26 1133.21L1359.18 1178.91L1376.27 1174.45L1380.52 1190.7L1342.81 1200.55L1326.63 1138.59ZM1421.51 1113.83L1442.13 1108.45L1454.06 1154.15L1471.15 1149.69L1475.39 1165.94L1437.68 1175.78L1421.51 1113.83ZM1516.39 1089.06L1552.89 1079.54L1557.13 1095.79L1540.42 1100.16L1542.21 1107.03L1558.65 1102.74L1562.67 1118.16L1546.23 1122.45L1548.1 1129.6L1565.47 1125.07L1569.71 1141.32L1532.56 1151.02L1516.39 1089.06ZM1612.99 1063.85L1629.24 1059.61L1652.56 1079.02L1646.33 1055.15L1665.75 1050.08L1681.92 1112.04L1665.57 1116.3L1642.37 1096.96L1648.57 1120.74L1629.16 1125.81L1612.99 1063.85ZM1771.08 1045.11C1769.7 1044.41 1768.12 1044.03 1766.32 1043.97C1764.5 1043.85 1762.78 1044 1761.17 1044.42C1759.38 1044.89 1757.83 1045.66 1756.52 1046.73C1755.19 1047.74 1754.13 1048.97 1753.32 1050.44C1752.56 1051.83 1752.08 1053.41 1751.88 1055.18C1751.68 1056.95 1751.82 1058.77 1752.31 1060.63C1752.79 1062.48 1753.59 1064.13 1754.69 1065.56C1755.79 1066.99 1757.08 1068.14 1758.56 1069.01C1760.03 1069.82 1761.63 1070.36 1763.35 1070.64C1765.13 1070.84 1766.91 1070.71 1768.71 1070.24C1770.81 1069.69 1772.62 1068.75 1774.13 1067.43C1775.62 1066.05 1776.78 1064.43 1777.61 1062.55L1772.04 1064.01L1768.65 1051L1792.52 1044.77L1797.9 1065.39C1797.14 1068.31 1796.04 1071.07 1794.61 1073.69C1793.16 1076.26 1791.39 1078.6 1789.31 1080.73C1787.28 1082.85 1784.95 1084.68 1782.31 1086.23C1779.67 1087.78 1776.83 1088.95 1773.8 1089.74C1769.34 1090.91 1764.91 1091.17 1760.51 1090.53C1756.11 1089.89 1752.04 1088.51 1748.31 1086.37C1744.64 1084.22 1741.42 1081.39 1738.65 1077.88C1735.95 1074.35 1734 1070.3 1732.8 1065.72C1731.64 1061.26 1731.34 1056.84 1731.92 1052.45C1732.49 1048.07 1733.8 1044.06 1735.82 1040.42C1737.9 1036.71 1740.63 1033.51 1744.04 1030.84C1747.49 1028.09 1751.44 1026.13 1755.9 1024.96C1759.37 1024.06 1762.46 1023.62 1765.17 1023.63C1767.89 1023.65 1770.23 1023.87 1772.19 1024.28C1774.49 1024.74 1776.48 1025.38 1778.15 1026.2L1771.08 1045.11ZM1844.74 1003.36L1881.24 993.835L1885.49 1010.09L1868.77 1014.45L1870.56 1021.33L1887 1017.04L1891.03 1032.46L1874.59 1036.75L1876.45 1043.9L1893.82 1039.37L1898.07 1055.62L1860.91 1065.32L1844.74 1003.36Z" fill="#F7F7F7"/>
<path d="M43.7797 1026.52C45.3342 1021.42 47.626 1017.1 50.6552 1013.56C53.7038 1009.96 57.2056 1007.16 61.1604 1005.16C65.1153 1003.15 69.3666 1002.01 73.9144 1001.72C78.4816 1001.37 83.061 1001.9 87.6526 1003.3C91.2876 1004.4 94.4012 1005.74 96.9934 1007.29C99.6495 1008.87 101.862 1010.41 103.63 1011.93C105.679 1013.67 107.38 1015.41 108.732 1017.14L93.2964 1031.78C92.5092 1030.7 91.6166 1029.63 90.6187 1028.56C89.69 1027.72 88.5284 1026.84 87.1339 1025.93C85.8226 1024.97 84.2103 1024.2 82.2972 1023.62C80.3202 1023.02 78.3958 1022.81 76.524 1023.01C74.6522 1023.2 72.894 1023.71 71.2494 1024.54C69.6685 1025.38 68.2747 1026.52 67.068 1027.97C65.8808 1029.35 65.0054 1030.96 64.4419 1032.81C63.8784 1034.66 63.6948 1036.52 63.8911 1038.39C64.1706 1040.22 64.7635 1041.94 65.6698 1043.54C66.576 1045.14 67.7832 1046.55 69.2913 1047.78C70.7994 1049 72.5738 1049.93 74.6145 1050.55C76.6552 1051.17 78.5505 1051.47 80.3002 1051.44C82.05 1051.42 83.5641 1051.25 84.8425 1050.95C86.3317 1050.63 87.7003 1050.14 88.9483 1049.48L93.6004 1070.24C91.4511 1071.11 89.0315 1071.74 86.3416 1072.1C84.0289 1072.37 81.321 1072.45 78.2181 1072.34C75.1152 1072.24 71.7144 1071.62 68.0156 1070.49C63.0413 1068.97 58.6926 1066.78 54.9694 1063.9C51.2657 1060.96 48.3302 1057.56 46.1629 1053.69C43.9957 1049.83 42.6729 1045.59 42.1946 1040.98C41.7358 1036.31 42.2641 1031.49 43.7797 1026.52ZM148.455 1058.41C149.854 1053.82 152.036 1049.74 155.001 1046.19C158.03 1042.65 161.5 1039.84 165.411 1037.76C169.405 1035.63 173.704 1034.32 178.31 1033.85C182.936 1033.3 187.544 1033.73 192.136 1035.13C196.728 1036.53 200.792 1038.74 204.33 1041.77C207.886 1044.74 210.697 1048.21 212.762 1052.18C214.909 1056.11 216.222 1060.38 216.701 1064.99C217.243 1069.61 216.814 1074.22 215.415 1078.81C214.016 1083.4 211.802 1087.47 208.773 1091.01C205.808 1094.56 202.328 1097.41 198.334 1099.53C194.424 1101.62 190.156 1102.93 185.53 1103.47C180.924 1103.95 176.325 1103.49 171.734 1102.09C167.142 1100.69 163.068 1098.51 159.511 1095.55C155.974 1092.52 153.131 1089.04 150.983 1085.11C148.919 1081.13 147.615 1076.83 147.073 1072.21C146.595 1067.6 147.056 1063 148.455 1058.41ZM168.543 1064.53C167.979 1066.38 167.796 1068.24 167.992 1070.11C168.208 1071.92 168.737 1073.62 169.579 1075.2C170.422 1076.78 171.533 1078.16 172.914 1079.35C174.358 1080.56 176.005 1081.44 177.854 1082C179.704 1082.57 181.533 1082.74 183.341 1082.53C185.212 1082.33 186.939 1081.81 188.52 1080.97C190.1 1080.12 191.485 1079.01 192.672 1077.63C193.879 1076.19 194.764 1074.54 195.327 1072.69C195.891 1070.84 196.064 1069.01 195.849 1067.21C195.652 1065.33 195.133 1063.61 194.291 1062.03C193.448 1060.45 192.305 1059.05 190.86 1057.85C189.48 1056.66 187.865 1055.78 186.015 1055.22C184.166 1054.66 182.305 1054.47 180.434 1054.67C178.626 1054.88 176.931 1055.41 175.35 1056.26C173.769 1057.1 172.376 1058.24 171.169 1059.69C169.982 1061.07 169.106 1062.68 168.543 1064.53ZM276.35 1062.46L293.09 1067.56L303.2 1097.51L310.691 1072.93L330.684 1079.02L311.243 1142.82L294.407 1137.69L284.363 1107.87L276.902 1132.36L256.909 1126.27L276.35 1062.46ZM383.267 1095.04L400.007 1100.14L410.117 1130.09L417.608 1105.5L437.6 1111.59L418.16 1175.4L401.324 1170.27L391.28 1140.45L383.819 1164.94L363.826 1158.84L383.267 1095.04ZM490.183 1127.62L527.777 1139.07L522.676 1155.81L505.458 1150.56L503.301 1157.64L520.233 1162.8L515.394 1178.68L498.463 1173.52L496.219 1180.89L514.107 1186.34L509.006 1203.08L470.743 1191.42L490.183 1127.62ZM568.929 1186.52C570.483 1181.42 572.775 1177.1 575.804 1173.57C578.853 1169.96 582.355 1167.16 586.309 1165.16C590.264 1163.16 594.516 1162.02 599.063 1161.73C603.631 1161.38 608.21 1161.9 612.802 1163.3C616.437 1164.41 619.55 1165.74 622.142 1167.3C624.798 1168.88 627.011 1170.42 628.779 1171.94C630.828 1173.67 632.529 1175.41 633.881 1177.15L618.445 1191.79C617.658 1190.71 616.766 1189.64 615.768 1188.57C614.839 1187.72 613.677 1186.85 612.283 1185.94C610.972 1184.98 609.359 1184.21 607.446 1183.63C605.469 1183.02 603.545 1182.82 601.673 1183.02C599.801 1183.21 598.043 1183.72 596.398 1184.55C594.817 1185.39 593.424 1186.53 592.217 1187.98C591.03 1189.36 590.154 1190.97 589.591 1192.82C589.027 1194.67 588.844 1196.53 589.04 1198.4C589.32 1200.23 589.912 1201.94 590.819 1203.54C591.725 1205.14 592.932 1206.56 594.44 1207.78C595.948 1209.01 597.723 1209.93 599.764 1210.56C601.804 1211.18 603.699 1211.48 605.449 1211.45C607.199 1211.43 608.713 1211.26 609.991 1210.95C611.481 1210.64 612.849 1210.15 614.097 1209.49L618.749 1230.24C616.6 1231.12 614.18 1231.74 611.491 1232.11C609.178 1232.38 606.47 1232.46 603.367 1232.35C600.264 1232.24 596.863 1231.62 593.165 1230.5C588.19 1228.98 583.842 1226.79 580.118 1223.91C576.415 1220.97 573.479 1217.57 571.312 1213.7C569.145 1209.83 567.822 1205.6 567.344 1200.99C566.885 1196.32 567.413 1191.5 568.929 1186.52ZM688.091 1206.21L676.325 1202.63L681.425 1185.89L726.002 1199.47L720.901 1216.21L709.135 1212.62L694.795 1259.69L673.751 1253.27L688.091 1206.21Z" fill="#F5F5F5"/>
</svg>
