<svg width="1839" height="868" viewBox="0 0 1839 868" fill="none" xmlns="http://www.w3.org/2000/svg">
<path d="M5.56393 826.031V729.983H32.2039C41.2279 729.983 49.2439 730.991 56.2519 733.007C63.3559 735.023 69.3079 738.047 74.1079 742.079C79.0039 746.111 82.6999 751.151 85.1959 757.199C87.7879 763.151 89.0839 770.063 89.0839 777.935C89.0839 785.807 87.7879 792.767 85.1959 798.815C82.6999 804.767 79.0039 809.759 74.1079 813.791C69.3079 817.823 63.3559 820.895 56.2519 823.007C49.2439 825.023 41.2279 826.031 32.2039 826.031H5.56393ZM36.2359 798.671C43.4359 798.671 49.0039 796.991 52.9399 793.631C56.8759 790.175 58.8439 784.943 58.8439 777.935C58.8439 770.927 56.8759 765.743 52.9399 762.383C49.0039 759.023 43.4359 757.343 36.2359 757.343V798.671ZM140.17 729.983H172.714V826.031H140.17V729.983ZM223.388 796.223C225.5 796.895 227.708 797.423 230.012 797.807C231.932 798.287 234.092 798.671 236.492 798.959C238.988 799.247 241.484 799.391 243.98 799.391C248.396 799.391 250.604 797.759 250.604 794.495C250.604 793.247 249.932 791.999 248.588 790.751C247.244 789.407 245.516 787.967 243.404 786.431C241.388 784.799 239.18 783.023 236.78 781.103C234.476 779.183 232.268 776.975 230.156 774.479C228.14 771.983 226.46 769.199 225.116 766.127C223.772 762.959 223.1 759.359 223.1 755.327C223.1 750.815 223.916 746.831 225.548 743.375C227.18 739.919 229.436 737.039 232.316 734.735C235.196 732.431 238.556 730.703 242.396 729.551C246.332 728.303 250.508 727.679 254.924 727.679C257.228 727.679 259.532 727.823 261.836 728.111C264.14 728.303 266.204 728.495 268.028 728.687C270.14 728.975 272.204 729.263 274.22 729.551V756.479C273.452 756.383 272.588 756.287 271.628 756.191C270.86 756.095 269.996 755.999 269.036 755.903C268.076 755.807 267.068 755.759 266.012 755.759C265.436 755.759 264.716 755.807 263.852 755.903C262.988 755.903 262.172 755.999 261.404 756.191C260.636 756.383 259.964 756.719 259.388 757.199C258.812 757.679 258.524 758.351 258.524 759.215C258.524 759.983 259.148 760.943 260.396 762.095C261.74 763.247 263.324 764.591 265.148 766.127C267.068 767.663 269.132 769.439 271.34 771.455C273.644 773.471 275.708 775.775 277.532 778.367C279.452 780.959 281.036 783.887 282.284 787.151C283.628 790.415 284.3 794.063 284.3 798.095C284.3 802.319 283.628 806.303 282.284 810.047C280.94 813.695 278.828 816.911 275.948 819.695C273.164 822.383 269.564 824.495 265.148 826.031C260.732 827.663 255.5 828.479 249.452 828.479C245.804 828.479 242.396 828.287 239.228 827.903C236.156 827.615 233.42 827.231 231.02 826.751C228.236 826.271 225.692 825.695 223.388 825.023V796.223ZM331.848 778.079C331.848 770.399 333.192 763.487 335.88 757.343C338.568 751.103 342.216 745.775 346.824 741.359C351.432 736.943 356.808 733.583 362.952 731.279C369.096 728.879 375.624 727.679 382.536 727.679C388.008 727.679 392.856 728.207 397.08 729.263C401.4 730.319 405.096 731.519 408.168 732.863C411.72 734.399 414.792 736.079 417.384 737.903L402.264 764.543C400.728 763.391 399.048 762.287 397.224 761.231C395.592 760.463 393.624 759.743 391.32 759.071C389.112 758.303 386.568 757.919 383.688 757.919C380.712 757.919 377.976 758.447 375.48 759.503C372.984 760.559 370.776 761.999 368.856 763.823C367.032 765.647 365.592 767.807 364.536 770.303C363.48 772.703 362.952 775.295 362.952 778.079C362.952 780.863 363.48 783.503 364.536 785.999C365.688 788.399 367.224 790.511 369.144 792.335C371.064 794.159 373.32 795.599 375.912 796.655C378.504 797.711 381.336 798.239 384.408 798.239C387.48 798.239 390.216 797.855 392.616 797.087C395.016 796.319 397.032 795.455 398.664 794.495C400.584 793.439 402.264 792.191 403.704 790.751L418.824 817.391C416.232 819.503 413.16 821.375 409.608 823.007C406.536 824.351 402.84 825.599 398.52 826.751C394.2 827.903 389.256 828.479 383.688 828.479C376.2 828.479 369.288 827.279 362.952 824.879C356.616 822.383 351.144 818.927 346.536 814.511C341.928 810.095 338.328 804.815 335.736 798.671C333.144 792.431 331.848 785.567 331.848 778.079ZM463.501 778.079C463.501 771.167 464.797 764.639 467.389 758.495C470.077 752.351 473.677 747.023 478.189 742.511C482.797 737.903 488.173 734.303 494.317 731.711C500.461 729.023 506.989 727.679 513.901 727.679C520.813 727.679 527.341 729.023 533.485 731.711C539.629 734.303 544.957 737.903 549.469 742.511C554.077 747.023 557.677 752.351 560.269 758.495C562.957 764.639 564.301 771.167 564.301 778.079C564.301 784.991 562.957 791.519 560.269 797.663C557.677 803.807 554.077 809.183 549.469 813.791C544.957 818.303 539.629 821.903 533.485 824.591C527.341 827.183 520.813 828.479 513.901 828.479C506.989 828.479 500.461 827.183 494.317 824.591C488.173 821.903 482.797 818.303 478.189 813.791C473.677 809.183 470.077 803.807 467.389 797.663C464.797 791.519 463.501 784.991 463.501 778.079ZM493.741 778.079C493.741 780.863 494.269 783.503 495.325 785.999C496.381 788.399 497.821 790.511 499.645 792.335C501.469 794.159 503.581 795.599 505.981 796.655C508.477 797.711 511.117 798.239 513.901 798.239C516.685 798.239 519.277 797.711 521.677 796.655C524.173 795.599 526.333 794.159 528.157 792.335C529.981 790.511 531.421 788.399 532.477 785.999C533.533 783.503 534.061 780.863 534.061 778.079C534.061 775.295 533.533 772.703 532.477 770.303C531.421 767.807 529.981 765.647 528.157 763.823C526.333 761.999 524.173 760.559 521.677 759.503C519.277 758.447 516.685 757.919 513.901 757.919C511.117 757.919 508.477 758.447 505.981 759.503C503.581 760.559 501.469 761.999 499.645 763.823C497.821 765.647 496.381 767.807 495.325 770.303C494.269 772.703 493.741 775.295 493.741 778.079ZM641.087 729.983L657.359 771.743L673.775 729.983H707.327L669.887 826.031H644.975L607.535 729.983H641.087ZM752.733 729.983H809.325V755.183H783.405V765.839H808.893V789.743H783.405V800.831H810.333V826.031H752.733V729.983ZM862.167 729.983H895.287C901.431 729.983 907.095 730.799 912.279 732.431C917.559 734.063 922.119 736.463 925.959 739.631C929.799 742.799 932.775 746.735 934.887 751.439C937.095 756.047 938.199 761.375 938.199 767.423C938.199 772.223 937.527 776.303 936.183 779.663C934.839 783.023 933.351 785.807 931.719 788.015C929.799 790.511 927.639 792.623 925.239 794.351L943.239 826.031H907.239L892.839 801.695V826.031H862.167V729.983ZM892.839 777.215H894.423C898.071 777.215 901.143 776.399 903.639 774.767C906.231 773.135 907.527 770.399 907.527 766.559C907.527 762.719 906.231 759.983 903.639 758.351C901.143 756.719 898.071 755.903 894.423 755.903H892.839V777.215Z" fill="#F7F7F7"/>
<path d="M106.453 313.643L125.624 325.612L119.817 349.454L138.688 333.767L151.072 341.499L145.265 365.341L164.136 349.654L183.307 361.622L129.323 406.551L115.241 397.76L120.255 377.077L103.875 390.664L89.7933 381.873L106.453 313.643ZM225.314 387.847L244.485 399.815L209.163 456.394L189.992 444.426L225.314 387.847ZM291.131 428.936L305.976 438.203L307.974 469.748L321.584 447.947L339.312 459.015L303.99 515.595L289.061 506.274L287.094 474.867L273.538 496.583L255.809 485.515L291.131 428.936Z" fill="#F5F5F5"/>
<path d="M1150.1 253.246L1171.86 245.82C1175.9 244.442 1179.81 243.708 1183.58 243.619C1187.42 243.507 1190.95 244.062 1194.19 245.283C1197.42 246.504 1200.26 248.424 1202.7 251.042C1205.19 253.576 1207.11 256.83 1208.46 260.805C1209.54 263.96 1210.01 266.792 1209.88 269.302C1209.75 271.811 1209.4 273.975 1208.82 275.792C1208.12 277.863 1207.17 279.735 1205.98 281.409L1224.92 298.195L1201.26 306.267L1186.34 293.501L1191.79 309.496L1171.63 316.373L1150.1 253.246ZM1180.85 277.412L1181.89 277.057C1184.28 276.239 1186.12 275.013 1187.4 273.381C1188.73 271.727 1188.97 269.638 1188.11 267.115C1187.25 264.591 1185.78 263.083 1183.71 262.592C1181.71 262.079 1179.51 262.231 1177.11 263.049L1176.07 263.404L1180.85 277.412ZM1250.7 218.923L1287.9 206.233L1293.55 222.796L1276.51 228.608L1278.9 235.612L1295.65 229.896L1301.01 245.607L1284.26 251.322L1286.75 258.61L1304.45 252.572L1310.1 269.135L1272.24 282.05L1250.7 218.923ZM1334.46 190.348L1355.85 183.051L1370.66 202.617L1370.42 178.079L1384.24 173.364L1399.05 192.93L1398.82 168.392L1420.21 161.095L1420.92 231.326L1405.21 236.686L1392.35 219.731L1392.53 241.012L1376.82 246.372L1334.46 190.348ZM1476.39 141.928L1491.53 136.762L1537.01 191.72L1517.14 198.501L1513.12 193.532L1494 200.055L1493.85 206.444L1473.98 213.224L1476.39 141.928ZM1503.07 181.428L1495.03 171.808L1494.55 184.334L1503.07 181.428ZM1562.32 112.61L1584.09 105.184C1588.13 103.806 1592.03 103.073 1595.81 102.983C1599.64 102.872 1603.18 103.426 1606.41 104.648C1609.65 105.869 1612.48 107.788 1614.93 110.406C1617.41 112.94 1619.33 116.194 1620.69 120.169C1621.76 123.324 1622.24 126.156 1622.11 128.666C1621.98 131.176 1621.62 133.339 1621.05 135.156C1620.34 137.227 1619.4 139.1 1618.21 140.774L1637.14 157.559L1613.48 165.631L1598.56 152.865L1604.02 168.86L1583.86 175.738L1562.32 112.61ZM1593.07 136.776L1594.11 136.421C1596.51 135.603 1598.35 134.378 1599.62 132.745C1600.96 131.092 1601.2 129.003 1600.34 126.479C1599.47 123.955 1598.01 122.447 1595.94 121.956C1593.93 121.443 1591.73 121.596 1589.33 122.414L1588.29 122.769L1593.07 136.776ZM1684.46 141.414L1662.93 78.2871L1680.44 72.3136C1686.37 70.2902 1691.86 69.1553 1696.92 68.9089C1702.04 68.641 1706.63 69.2939 1710.69 70.8677C1714.81 72.4199 1718.37 74.9036 1721.37 78.319C1724.41 81.6497 1726.81 85.902 1728.57 91.0759C1730.34 96.2497 1731.05 101.115 1730.7 105.671C1730.39 110.143 1729.08 114.252 1726.77 118C1724.52 121.727 1721.3 125.08 1717.1 128.061C1712.95 130.958 1707.9 133.418 1701.97 135.441L1684.46 141.414ZM1698.49 116.555C1703.22 114.94 1706.5 112.587 1708.34 109.497C1710.15 106.343 1710.27 102.463 1708.7 97.8566C1707.13 93.2506 1704.67 90.2847 1701.33 88.9589C1697.99 87.6331 1693.95 87.7774 1689.22 89.3919L1698.49 116.555ZM1781.58 86.4099C1783.12 86.378 1784.69 86.2299 1786.29 85.9656C1787.66 85.8506 1789.17 85.6187 1790.81 85.2698C1792.51 84.8994 1794.19 84.4344 1795.83 83.8747C1798.73 82.8845 1799.82 81.3168 1799.08 79.1715C1798.8 78.3513 1798.08 77.6817 1796.92 77.1628C1795.73 76.5809 1794.28 76.0219 1792.54 75.4859C1790.85 74.8653 1789 74.1932 1786.99 73.4694C1785.05 72.7241 1783.1 71.768 1781.16 70.6011C1779.27 69.4126 1777.54 67.9596 1775.97 66.2419C1774.38 64.4611 1773.13 62.2456 1772.22 59.5956C1771.21 56.6301 1770.85 53.8287 1771.15 51.1913C1771.45 48.5539 1772.29 46.1552 1773.66 43.9951C1775.04 41.835 1776.86 39.9459 1779.13 38.3277C1781.43 36.6249 1784.04 35.2784 1786.94 34.2882C1788.45 33.7716 1790 33.3496 1791.58 33.0223C1793.14 32.6318 1794.54 32.2952 1795.78 32.0124C1797.23 31.7281 1798.65 31.4546 1800.04 31.1918L1806.08 48.8902C1805.55 48.9993 1804.96 49.13 1804.31 49.2821C1803.79 49.3912 1803.2 49.5219 1802.54 49.674C1801.89 49.8262 1801.22 50.0207 1800.52 50.2575C1800.15 50.3866 1799.68 50.5796 1799.14 50.8364C1798.57 51.0302 1798.05 51.2762 1797.59 51.5746C1797.13 51.873 1796.76 52.2446 1796.49 52.6892C1796.22 53.1338 1796.18 53.6401 1796.38 54.2079C1796.55 54.7127 1797.18 55.2037 1798.25 55.6811C1799.4 56.1368 1800.74 56.665 1802.28 57.2655C1803.89 57.8446 1805.64 58.549 1807.55 59.3789C1809.51 60.1873 1811.39 61.2388 1813.17 62.5334C1815.01 63.8065 1816.71 65.3757 1818.26 67.2412C1819.87 69.085 1821.13 71.332 1822.04 73.982C1822.98 76.7582 1823.44 79.5274 1823.39 82.2895C1823.33 84.9885 1822.66 87.5758 1821.39 90.0513C1820.16 92.4423 1818.27 94.6376 1815.71 96.6373C1813.18 98.7001 1809.92 100.41 1805.95 101.766C1803.55 102.584 1801.27 103.222 1799.1 103.68C1797.01 104.179 1795.13 104.54 1793.44 104.763C1791.51 105.072 1789.71 105.264 1788.04 105.339L1781.58 86.4099Z" fill="#F5F5F5"/>
</svg>
