<svg width="1920" height="789" viewBox="0 0 1920 789" fill="none" xmlns="http://www.w3.org/2000/svg">
<path d="M0.570801 324.237V324.237C0.570817 337.19 12.2163 347.033 24.9884 344.877L137.469 325.882C143.95 324.787 150.319 323.109 156.497 320.867L371.961 242.687C386.484 237.417 401.961 235.295 417.366 236.461L698.755 257.761C724.083 259.678 745.691 239.644 745.691 214.244V214.244C745.691 191.09 763.773 171.966 786.891 170.67L927.58 162.786C935.845 162.323 944.031 160.919 951.978 158.603L1028.59 136.277C1049.35 130.227 1067.84 118.14 1081.71 101.552L1133.38 39.7526C1162.03 5.49059 1208.69 -7.82694 1251.11 6.14721L1427.62 64.2959C1444.08 69.7167 1459 78.9821 1471.16 91.3238L1496.19 116.731C1506.8 127.491 1519.52 135.93 1533.55 141.513L1583.55 161.402C1594.77 165.862 1606.65 168.43 1618.7 168.999L1754.29 175.399L1872.31 197.18L1909.38 205.646C1914.82 206.888 1920 202.757 1920 197.18V197.18V308.506V670.314V670.314C1920 681.339 1910.5 689.964 1899.53 688.9L1717.64 671.268C1711.09 670.633 1704.49 670.593 1697.93 671.147L1464.58 690.885L1237.49 681.053C1221.38 680.356 1205.32 683.239 1190.47 689.496L975.436 780.058C944.101 793.255 908.402 791.074 878.907 774.16L725.083 685.952C718.178 681.992 710.859 678.8 703.259 676.434L264.73 539.921C256.356 537.315 247.698 535.728 238.944 535.196L95.3683 526.47C68.2884 524.824 43.0116 512.344 25.2395 491.846V491.846C9.32946 473.496 0.570801 450.023 0.570801 425.736V324.237Z" fill="#E4B2F8" fill-opacity="0.5"/>
<path d="M0.570801 324.237V324.237C0.570817 337.19 12.2163 347.033 24.9884 344.877L137.469 325.882C143.95 324.787 150.319 323.109 156.497 320.867L371.961 242.687C386.484 237.417 401.961 235.295 417.366 236.461L698.755 257.761C724.083 259.678 745.691 239.644 745.691 214.244V214.244C745.691 191.09 763.773 171.966 786.891 170.67L927.58 162.786C935.845 162.323 944.031 160.919 951.978 158.603L1028.59 136.277C1049.35 130.227 1067.84 118.14 1081.71 101.552L1133.38 39.7526C1162.03 5.49059 1208.69 -7.82694 1251.11 6.14721L1427.62 64.2959C1444.08 69.7167 1459 78.9821 1471.16 91.3238L1496.19 116.731C1506.8 127.491 1519.52 135.93 1533.55 141.513L1583.55 161.402C1594.77 165.862 1606.65 168.43 1618.7 168.999L1754.29 175.399L1872.31 197.18L1909.38 205.646C1914.82 206.888 1920 202.757 1920 197.18V197.18V308.506V670.314V670.314C1920 681.339 1910.5 689.964 1899.53 688.9L1717.64 671.268C1711.09 670.633 1704.49 670.593 1697.93 671.147L1464.58 690.885L1237.49 681.053C1221.38 680.356 1205.32 683.239 1190.47 689.496L975.436 780.058C944.101 793.255 908.402 791.074 878.907 774.16L725.083 685.952C718.178 681.992 710.859 678.8 703.259 676.434L264.73 539.921C256.356 537.315 247.698 535.728 238.944 535.196L95.3683 526.47C68.2884 524.824 43.0116 512.344 25.2395 491.846V491.846C9.32946 473.496 0.570801 450.023 0.570801 425.736V324.237Z" fill="url(#paint0_linear)" fill-opacity="0.5"/>
<defs>
<linearGradient id="paint0_linear" x1="1" y1="392" x2="1920" y2="392" gradientUnits="userSpaceOnUse">
<stop stop-color="#30D5AE"/>
<stop offset="1" stop-color="#520060"/>
</linearGradient>
</defs>
</svg>
