<svg width="1920" height="918" viewBox="0 0 1920 918" fill="none" xmlns="http://www.w3.org/2000/svg">
<path d="M0 0V0C3.9925 58.0447 40.0362 109.012 93.4331 132.118L297.123 220.261C376.516 254.616 464.441 264.167 549.358 247.659L896.097 180.255C946.294 170.497 997.833 169.792 1048.28 178.174L1343.7 227.261C1423.28 240.485 1504.99 231 1579.42 199.893L1856.81 83.9824C1891.51 69.4799 1915.68 37.3641 1920 0V0V918V918C1911.07 768.776 1795.07 648.141 1646.3 633.38L1542.53 623.083C1482.2 617.096 1421.29 624.038 1363.86 643.446L1201.71 698.236C1082.04 738.672 950.629 724.313 842.516 658.988L475.655 437.317C425.386 406.943 368.19 389.919 309.494 387.859L14.1335 377.496C6.09519 377.214 -0.862518 383.038 -2 391V391L0 0Z" fill="#30D5AE" fill-opacity="0.8"/>
<path d="M0 0V0C3.9925 58.0447 40.0362 109.012 93.4331 132.118L297.123 220.261C376.516 254.616 464.441 264.167 549.358 247.659L896.097 180.255C946.294 170.497 997.833 169.792 1048.28 178.174L1343.7 227.261C1423.28 240.485 1504.99 231 1579.42 199.893L1856.81 83.9824C1891.51 69.4799 1915.68 37.3641 1920 0V0V918V918C1911.07 768.776 1795.07 648.141 1646.3 633.38L1542.53 623.083C1482.2 617.096 1421.29 624.038 1363.86 643.446L1201.71 698.236C1082.04 738.672 950.629 724.313 842.516 658.988L475.655 437.317C425.386 406.943 368.19 389.919 309.494 387.859L14.1335 377.496C6.09519 377.214 -0.862518 383.038 -2 391V391L0 0Z" fill="url(#paint0_linear)" fill-opacity="0.8"/>
<defs>
<linearGradient id="paint0_linear" x1="960" y1="3.76233e-05" x2="1211.5" y2="600" gradientUnits="userSpaceOnUse">
<stop stop-color="#30D5AE"/>
<stop offset="1" stop-color="#B299FF"/>
</linearGradient>
</defs>
</svg>
