<svg width="360" height="169" viewBox="0 0 360 169" fill="none" xmlns="http://www.w3.org/2000/svg">
<path d="M-3.37305 51.3412L-3.37304 55.878C-3.37304 37.4628 11.5554 22.5344 29.9705 22.5344H35.7067L67.2273 24.2749L106.237 22.8375C111.712 22.6357 117.194 22.847 122.637 23.4695L128.2 24.1058C134.501 24.8265 140.867 24.7653 147.153 23.9237L149.936 23.5511C154.975 22.8764 160.083 22.8874 165.119 23.5837L171.833 24.5119C175.073 24.9598 178.37 24.7348 181.519 23.8511C184.614 22.9824 187.878 22.7532 191.066 23.1715C195.184 23.712 199.404 23.1809 203.254 21.6222L211.06 18.4621C221.038 14.4229 231.969 13.3435 242.544 15.353L261.55 18.9644C265.669 19.7471 269.91 19.6142 273.972 18.5752C279.722 17.1044 285.787 17.4597 291.326 19.5919L293.883 20.5759C297.612 22.0113 301.548 22.8361 305.54 23.0185L328.628 24.0733L350.972 28.0637L358.052 29.6283C359.052 29.8494 360 29.0881 360 28.0637V48.4592V114.745C360 116.766 358.261 118.35 356.248 118.161L322.801 115.024C320.821 114.838 318.829 114.826 316.848 114.988L273.783 118.513L244.501 117.286C232.416 116.78 220.364 118.881 209.163 123.446L206.328 124.601C184.478 133.507 159.768 132.028 139.136 120.578C134.272 117.879 129.134 115.709 123.808 114.105L52.2707 92.5535C46.9413 90.948 41.4423 89.9719 35.8859 89.6451L14.2618 88.3732C9.32684 88.0829 4.70662 85.854 1.40794 82.172C-1.67066 78.7357 -3.37305 74.2843 -3.37305 69.6706V51.3412Z" fill="#E4B2F8" fill-opacity="0.5"/>
<path d="M-3.37305 51.3412L-3.37304 55.878C-3.37304 37.4628 11.5554 22.5344 29.9705 22.5344H35.7067L67.2273 24.2749L106.237 22.8375C111.712 22.6357 117.194 22.847 122.637 23.4695L128.2 24.1058C134.501 24.8265 140.867 24.7653 147.153 23.9237L149.936 23.5511C154.975 22.8764 160.083 22.8874 165.119 23.5837L171.833 24.5119C175.073 24.9598 178.37 24.7348 181.519 23.8511C184.614 22.9824 187.878 22.7532 191.066 23.1715C195.184 23.712 199.404 23.1809 203.254 21.6222L211.06 18.4621C221.038 14.4229 231.969 13.3435 242.544 15.353L261.55 18.9644C265.669 19.7471 269.91 19.6142 273.972 18.5752C279.722 17.1044 285.787 17.4597 291.326 19.5919L293.883 20.5759C297.612 22.0113 301.548 22.8361 305.54 23.0185L328.628 24.0733L350.972 28.0637L358.052 29.6283C359.052 29.8494 360 29.0881 360 28.0637V48.4592V114.745C360 116.766 358.261 118.35 356.248 118.161L322.801 115.024C320.821 114.838 318.829 114.826 316.848 114.988L273.783 118.513L244.501 117.286C232.416 116.78 220.364 118.881 209.163 123.446L206.328 124.601C184.478 133.507 159.768 132.028 139.136 120.578C134.272 117.879 129.134 115.709 123.808 114.105L52.2707 92.5535C46.9413 90.948 41.4423 89.9719 35.8859 89.6451L14.2618 88.3732C9.32684 88.0829 4.70662 85.854 1.40794 82.172C-1.67066 78.7357 -3.37305 74.2843 -3.37305 69.6706V51.3412Z" fill="url(#paint0_linear)" fill-opacity="0.5"/>
<path d="M-3.70398 42.2345C-3.66264 34.4124 7.30369 32.6795 9.75504 40.1076C10.8459 43.4131 14.2269 45.3894 17.6423 44.718L35.3438 41.2384C39.6859 40.3848 44.1703 40.5979 48.412 41.8591L59.0476 45.0216C70.0841 48.3033 81.7442 48.9048 93.0598 46.7761L144.739 37.0541C168.422 32.5987 192.697 32.2769 216.49 36.1028L245.039 40.6935C263.957 43.7355 283.347 41.5463 301.111 34.3628L348.326 15.269C354.71 12.6875 359.183 6.83698 360 0V168.183C358.31 140.852 337 118.806 309.742 116.188L288.087 114.109C276.957 113.04 265.727 114.282 255.1 117.757L244.915 121.088C208.904 132.863 169.574 128.657 136.868 109.532L86.4455 80.0483C77.0005 74.5253 66.3297 71.4392 55.3947 71.0679L-0.88956 69.1567C-2.36547 69.1066 -3.64371 70.1727 -3.85938 71.6336L-3.70398 42.2345Z" fill="#30D5AE" fill-opacity="0.8"/>
<path d="M-3.70398 42.2345C-3.66264 34.4124 7.30369 32.6795 9.75504 40.1076C10.8459 43.4131 14.2269 45.3894 17.6423 44.718L35.3438 41.2384C39.6859 40.3848 44.1703 40.5979 48.412 41.8591L59.0476 45.0216C70.0841 48.3033 81.7442 48.9048 93.0598 46.7761L144.739 37.0541C168.422 32.5987 192.697 32.2769 216.49 36.1028L245.039 40.6935C263.957 43.7355 283.347 41.5463 301.111 34.3628L348.326 15.269C354.71 12.6875 359.183 6.83698 360 0V168.183C358.31 140.852 337 118.806 309.742 116.188L288.087 114.109C276.957 113.04 265.727 114.282 255.1 117.757L244.915 121.088C208.904 132.863 169.574 128.657 136.868 109.532L86.4455 80.0483C77.0005 74.5253 66.3297 71.4392 55.3947 71.0679L-0.88956 69.1567C-2.36547 69.1066 -3.64371 70.1727 -3.85938 71.6336L-3.70398 42.2345Z" fill="url(#paint1_linear)" fill-opacity="0.8"/>
<path d="M-10.8641 42.9382C-11.4524 26.6791 2.95721 13.9321 19.0231 16.4995L60.438 23.1175C69.3317 24.5387 77.7942 27.9339 85.2041 33.0537L100.599 43.6909C127.049 61.9662 158.892 70.7812 190.974 68.7093L282.326 62.8098C296.403 61.9006 310.017 57.4194 321.883 49.7891L354.92 28.5433C358.086 26.5072 360 23.001 360 19.2366V57.3667C360 86.1003 335.2 108.558 306.607 105.715C292.004 104.263 277.527 109.49 267.219 119.935L266.049 121.121C252.114 135.241 231.367 140.217 212.543 133.954L103.392 97.6375C92.4048 93.9818 80.6601 93.2225 69.2934 95.4332L55.9683 98.0248C21.3253 104.762 -10.8641 78.2303 -10.8641 42.9382Z" fill="#30D5AE" fill-opacity="0.4"/>
<path d="M-10.8641 42.9382C-11.4524 26.6791 2.95721 13.9321 19.0231 16.4995L60.438 23.1175C69.3317 24.5387 77.7942 27.9339 85.2041 33.0537L100.599 43.6909C127.049 61.9662 158.892 70.7812 190.974 68.7093L282.326 62.8098C296.403 61.9006 310.017 57.4194 321.883 49.7891L354.92 28.5433C358.086 26.5072 360 23.001 360 19.2366V57.3667C360 86.1003 335.2 108.558 306.607 105.715C292.004 104.263 277.527 109.49 267.219 119.935L266.049 121.121C252.114 135.241 231.367 140.217 212.543 133.954L103.392 97.6375C92.4048 93.9818 80.6601 93.2225 69.2934 95.4332L55.9683 98.0248C21.3253 104.762 -10.8641 78.2303 -10.8641 42.9382Z" fill="url(#paint2_linear)" fill-opacity="0.6"/>
<path d="M-3.37305 51.341C-3.37304 53.7186 -1.24209 55.5296 1.10435 55.1461L22.4545 51.657C23.7408 51.4467 25.0062 51.1239 26.236 50.692L52.3055 41.5379C64.7068 37.1834 77.8724 35.4315 90.9808 36.3917L131.78 39.3804C135.507 39.6534 139.151 38.1886 141.652 35.4121C144.037 32.7643 147.469 31.3029 151.03 31.4178L171.421 32.0755C178.626 32.3079 185.807 31.1475 192.572 28.6578L208.644 22.743L209.387 22.4163C223.353 16.2778 238.809 14.3531 253.854 16.8788L262.099 18.2629C265.934 18.9067 269.854 18.8534 273.67 18.1054C279.643 16.9349 285.824 17.4738 291.504 19.6602L293.494 20.4262C297.481 21.9607 301.688 22.8424 305.955 23.0373L328.628 24.0731L350.972 28.0635L358.052 29.6282C359.052 29.8492 360 29.0879 360 28.0635V48.459V114.744C360 116.766 358.261 118.35 356.248 118.161L322.801 115.023C320.821 114.838 318.829 114.826 316.848 114.988L273.783 118.513L244.501 117.286C232.416 116.78 220.364 118.881 209.163 123.446L206.328 124.601C184.478 133.507 159.768 132.027 139.136 120.578C134.272 117.879 129.134 115.709 123.808 114.104L52.2707 92.5533C46.9413 90.9478 41.4423 89.9717 35.8859 89.6449L14.2618 88.373C9.32684 88.0828 4.70662 85.8538 1.40794 82.1719C-1.67066 78.7356 -3.37305 74.2841 -3.37305 69.6705V51.341Z" fill="#E4B2F8" fill-opacity="0.5"/>
<path d="M-3.37305 51.341C-3.37304 53.7186 -1.24209 55.5296 1.10435 55.1461L22.4545 51.657C23.7408 51.4467 25.0062 51.1239 26.236 50.692L52.3055 41.5379C64.7068 37.1834 77.8724 35.4315 90.9808 36.3917L131.78 39.3804C135.507 39.6534 139.151 38.1886 141.652 35.4121C144.037 32.7643 147.469 31.3029 151.03 31.4178L171.421 32.0755C178.626 32.3079 185.807 31.1475 192.572 28.6578L208.644 22.743L209.387 22.4163C223.353 16.2778 238.809 14.3531 253.854 16.8788L262.099 18.2629C265.934 18.9067 269.854 18.8534 273.67 18.1054C279.643 16.9349 285.824 17.4738 291.504 19.6602L293.494 20.4262C297.481 21.9607 301.688 22.8424 305.955 23.0373L328.628 24.0731L350.972 28.0635L358.052 29.6282C359.052 29.8492 360 29.0879 360 28.0635V48.459V114.744C360 116.766 358.261 118.35 356.248 118.161L322.801 115.023C320.821 114.838 318.829 114.826 316.848 114.988L273.783 118.513L244.501 117.286C232.416 116.78 220.364 118.881 209.163 123.446L206.328 124.601C184.478 133.507 159.768 132.027 139.136 120.578C134.272 117.879 129.134 115.709 123.808 114.104L52.2707 92.5533C46.9413 90.9478 41.4423 89.9717 35.8859 89.6449L14.2618 88.373C9.32684 88.0828 4.70662 85.8538 1.40794 82.1719C-1.67066 78.7356 -3.37305 74.2841 -3.37305 69.6705V51.341Z" fill="url(#paint3_linear)" fill-opacity="0.5"/>
<defs>
<linearGradient id="paint0_linear" x1="-3.29179" y1="63.7556" x2="360" y2="63.7556" gradientUnits="userSpaceOnUse">
<stop stop-color="#30D5AE"/>
<stop offset="1" stop-color="#520060"/>
</linearGradient>
<linearGradient id="paint1_linear" x1="178.26" y1="6.89282e-06" x2="223.277" y2="110.976" gradientUnits="userSpaceOnUse">
<stop stop-color="#30D5AE"/>
<stop offset="1" stop-color="#B299FF"/>
</linearGradient>
<linearGradient id="paint2_linear" x1="179.88" y1="41.84" x2="268.301" y2="125.555" gradientUnits="userSpaceOnUse">
<stop stop-color="#60FFD6"/>
<stop offset="1" stop-color="#F4B1FF"/>
</linearGradient>
<linearGradient id="paint3_linear" x1="-3.29179" y1="63.7558" x2="360" y2="63.7558" gradientUnits="userSpaceOnUse">
<stop stop-color="#30D5AE"/>
<stop offset="1" stop-color="#520060"/>
</linearGradient>
</defs>
</svg>
