<svg width="360" height="169" viewBox="0 0 360 169" fill="none" xmlns="http://www.w3.org/2000/svg">
<path d="M364.486 58.6202C364.486 60.8578 362.493 62.5697 360.281 62.2318L338.493 58.9032C337.26 58.7149 336.045 58.4247 334.86 58.0358L299.584 46.4565C293.108 44.3306 286.282 43.477 279.481 43.9427L231.013 47.2616C226.676 47.5587 222.993 44.12 222.993 39.7721C222.993 35.7739 219.86 32.4772 215.867 32.2747L189.729 30.9496C187.311 30.827 184.912 30.4541 182.571 29.8368L173.605 27.473C166.827 25.6861 160.7 22.0028 155.942 16.8556C146.405 6.53783 131.83 2.54273 118.364 6.55558L96.6065 13.0398C91.4334 14.5814 86.6789 17.2799 82.7029 20.9307C79.2197 24.129 75.134 26.6009 70.6845 28.202L67.894 29.2062C63.1076 30.9285 58.0878 31.915 53.0056 32.132L31.4688 33.0518L9.05634 36.7935L1.83298 38.2859C0.88739 38.4812 0.000823975 37.7591 0.000823975 36.7935V55.9179V118.072C0.000823975 119.972 1.62875 121.463 3.52115 121.297L37.4789 118.319C39.3551 118.155 41.2417 118.144 43.1196 118.288L86.4812 121.606L115.976 120.451C128.034 119.978 140.062 121.95 151.338 126.246L154.47 127.439C176.316 135.762 200.676 134.366 221.428 123.601C226.383 121.03 231.587 118.972 236.96 117.459L308.76 97.2391C314.05 95.7495 319.487 94.8458 324.973 94.5441L347.403 93.3109C351.979 93.0592 356.289 91.0785 359.461 87.7694C362.686 84.4043 364.486 79.9234 364.486 75.2624V58.6202Z" fill="#E4B2F8" fill-opacity="0.5"/>
<path d="M364.486 58.6202C364.486 60.8578 362.493 62.5697 360.281 62.2318L338.493 58.9032C337.26 58.7149 336.045 58.4247 334.86 58.0358L299.584 46.4565C293.108 44.3306 286.282 43.477 279.481 43.9427L231.013 47.2616C226.676 47.5587 222.993 44.12 222.993 39.7721C222.993 35.7739 219.86 32.4772 215.867 32.2747L189.729 30.9496C187.311 30.827 184.912 30.4541 182.571 29.8368L173.605 27.473C166.827 25.6861 160.7 22.0028 155.942 16.8556C146.405 6.53783 131.83 2.54273 118.364 6.55558L96.6065 13.0398C91.4334 14.5814 86.6789 17.2799 82.7029 20.9307C79.2197 24.129 75.134 26.6009 70.6845 28.202L67.894 29.2062C63.1076 30.9285 58.0878 31.915 53.0056 32.132L31.4688 33.0518L9.05634 36.7935L1.83298 38.2859C0.88739 38.4812 0.000823975 37.7591 0.000823975 36.7935V55.9179V118.072C0.000823975 119.972 1.62875 121.463 3.52115 121.297L37.4789 118.319C39.3551 118.155 41.2417 118.144 43.1196 118.288L86.4812 121.606L115.976 120.451C128.034 119.978 140.062 121.95 151.338 126.246L154.47 127.439C176.316 135.762 200.676 134.366 221.428 123.601C226.383 121.03 231.587 118.972 236.96 117.459L308.76 97.2391C314.05 95.7495 319.487 94.8458 324.973 94.5441L347.403 93.3109C351.979 93.0592 356.289 91.0785 359.461 87.7694C362.686 84.4043 364.486 79.9234 364.486 75.2624V58.6202Z" fill="url(#paint0_linear)" fill-opacity="0.5"/>
<path d="M364.594 10.4791C363.839 20.4038 357.468 29.0195 348.199 32.6479L309.217 47.9081C293.397 54.1011 276.178 55.8205 259.446 52.878L215.906 45.2211C192.138 41.0412 167.849 40.7391 143.984 44.3264L113.511 48.9071C95.6733 51.5884 77.4457 49.6469 60.5728 43.2683L11.1301 24.5773C5.09875 22.2972 0.817963 16.8749 -3.05176e-05 10.4791V168.18C1.69452 142.564 21.7861 121.996 47.3549 119.7L73.0369 117.395C83.6185 116.445 94.284 117.554 104.444 120.659L115.439 124.02C151.758 135.122 191.019 131.112 224.343 112.896L274.666 85.3886C283.976 80.2996 294.352 77.4726 304.957 77.136L364.442 75.2478C364.529 75.245 364.604 75.3074 364.618 75.3934C364.651 75.6042 364.962 75.5789 364.961 75.3655L364.594 10.4791Z" fill="#30D5AE" fill-opacity="0.8"/>
<path d="M364.594 10.4791C363.839 20.4038 357.468 29.0195 348.199 32.6479L309.217 47.9081C293.397 54.1011 276.178 55.8205 259.446 52.878L215.906 45.2211C192.138 41.0412 167.849 40.7391 143.984 44.3264L113.511 48.9071C95.6733 51.5884 77.4457 49.6469 60.5728 43.2683L11.1301 24.5773C5.09875 22.2972 0.817963 16.8749 -3.05176e-05 10.4791V168.18C1.69452 142.564 21.7861 121.996 47.3549 119.7L73.0369 117.395C83.6185 116.445 94.284 117.554 104.444 120.659L115.439 124.02C151.758 135.122 191.019 131.112 224.343 112.896L274.666 85.3886C283.976 80.2996 294.352 77.4726 304.957 77.136L364.442 75.2478C364.529 75.245 364.604 75.3074 364.618 75.3934C364.651 75.6042 364.962 75.5789 364.961 75.3655L364.594 10.4791Z" fill="url(#paint1_linear)" fill-opacity="0.8"/>
<path d="M372 76.7567C372 61.6477 361.294 48.6569 346.464 45.7699L314.856 39.6167C296.937 36.1284 278.363 39.7123 263.028 49.6171L249.614 58.2811C229.876 71.0301 206.582 77.142 183.127 75.726L76.2411 69.2732C63.1946 68.4856 50.5316 64.5576 39.3298 57.8234L4.8541 37.098C1.84244 35.2875 0.000305176 32.0307 0.000305176 28.5167V60.0552C0.000305176 89.317 25.1572 112.244 54.2935 109.537C68.545 108.213 82.6754 113.097 93.0666 122.94L94.3171 124.124C108.368 137.434 128.513 142.117 146.994 136.368L258.068 101.821C268.669 98.5243 279.91 97.8394 290.832 99.8253L334.785 107.816C354.163 111.339 372 96.4524 372 76.7567Z" fill="#30D5AE" fill-opacity="0.4"/>
<path d="M372 76.7567C372 61.6477 361.294 48.6569 346.464 45.7699L314.856 39.6167C296.937 36.1284 278.363 39.7123 263.028 49.6171L249.614 58.2811C229.876 71.0301 206.582 77.142 183.127 75.726L76.2411 69.2732C63.1946 68.4856 50.5316 64.5576 39.3298 57.8234L4.8541 37.098C1.84244 35.2875 0.000305176 32.0307 0.000305176 28.5167V60.0552C0.000305176 89.317 25.1572 112.244 54.2935 109.537C68.545 108.213 82.6754 113.097 93.0666 122.94L94.3171 124.124C108.368 137.434 128.513 142.117 146.994 136.368L258.068 101.821C268.669 98.5243 279.91 97.8394 290.832 99.8253L334.785 107.816C354.163 111.339 372 96.4524 372 76.7567Z" fill="url(#paint2_linear)" fill-opacity="0.6"/>
<path d="M364.486 58.6202C364.486 60.8578 362.493 62.5697 360.281 62.2318L338.493 58.9032C337.26 58.7149 336.045 58.4247 334.86 58.0358L299.584 46.4565C293.108 44.3306 286.282 43.477 279.481 43.9427L231.013 47.2616C226.676 47.5587 222.993 44.12 222.993 39.7721C222.993 35.7739 219.86 32.4772 215.867 32.2747L189.729 30.9496C187.311 30.827 184.912 30.4541 182.571 29.8368L173.605 27.473C166.827 25.6861 160.7 22.0028 155.942 16.8556C146.405 6.53783 131.83 2.54273 118.364 6.55558L96.6065 13.0398C91.4334 14.5814 86.6789 17.2799 82.7029 20.9307C79.2197 24.129 75.134 26.6009 70.6845 28.202L67.894 29.2062C63.1076 30.9285 58.0878 31.915 53.0056 32.132L31.4688 33.0518L9.05634 36.7935L1.83298 38.2859C0.88739 38.4812 0.000823975 37.7591 0.000823975 36.7935V55.9179V118.072C0.000823975 119.972 1.62875 121.463 3.52115 121.297L37.4789 118.319C39.3551 118.155 41.2417 118.144 43.1196 118.288L86.4812 121.606L115.976 120.451C128.034 119.978 140.062 121.95 151.338 126.246L154.47 127.439C176.316 135.762 200.676 134.366 221.428 123.601C226.383 121.03 231.587 118.972 236.96 117.459L308.76 97.2391C314.05 95.7495 319.487 94.8458 324.973 94.5441L347.403 93.3109C351.979 93.0592 356.289 91.0785 359.461 87.7694C362.686 84.4043 364.486 79.9234 364.486 75.2624V58.6202Z" fill="#E4B2F8" fill-opacity="0.5"/>
<path d="M364.486 58.6202C364.486 60.8578 362.493 62.5697 360.281 62.2318L338.493 58.9032C337.26 58.7149 336.045 58.4247 334.86 58.0358L299.584 46.4565C293.108 44.3306 286.282 43.477 279.481 43.9427L231.013 47.2616C226.676 47.5587 222.993 44.12 222.993 39.7721C222.993 35.7739 219.86 32.4772 215.867 32.2747L189.729 30.9496C187.311 30.827 184.912 30.4541 182.571 29.8368L173.605 27.473C166.827 25.6861 160.7 22.0028 155.942 16.8556C146.405 6.53783 131.83 2.54273 118.364 6.55558L96.6065 13.0398C91.4334 14.5814 86.6789 17.2799 82.7029 20.9307C79.2197 24.129 75.134 26.6009 70.6845 28.202L67.894 29.2062C63.1076 30.9285 58.0878 31.915 53.0056 32.132L31.4688 33.0518L9.05634 36.7935L1.83298 38.2859C0.88739 38.4812 0.000823975 37.7591 0.000823975 36.7935V55.9179V118.072C0.000823975 119.972 1.62875 121.463 3.52115 121.297L37.4789 118.319C39.3551 118.155 41.2417 118.144 43.1196 118.288L86.4812 121.606L115.976 120.451C128.034 119.978 140.062 121.95 151.338 126.246L154.47 127.439C176.316 135.762 200.676 134.366 221.428 123.601C226.383 121.03 231.587 118.972 236.96 117.459L308.76 97.2391C314.05 95.7495 319.487 94.8458 324.973 94.5441L347.403 93.3109C351.979 93.0592 356.289 91.0785 359.461 87.7694C362.686 84.4043 364.486 79.9234 364.486 75.2624V58.6202Z" fill="url(#paint3_linear)" fill-opacity="0.5"/>
<defs>
<linearGradient id="paint0_linear" x1="364.405" y1="70.2611" x2="0.000859718" y2="70.2611" gradientUnits="userSpaceOnUse">
<stop stop-color="#30D5AE"/>
<stop offset="1" stop-color="#520060"/>
</linearGradient>
<linearGradient id="paint1_linear" x1="182.297" y1="10.4791" x2="142.121" y2="116.427" gradientUnits="userSpaceOnUse">
<stop stop-color="#30D5AE"/>
<stop offset="1" stop-color="#B299FF"/>
</linearGradient>
<linearGradient id="paint2_linear" x1="180.672" y1="49.7113" x2="97.644" y2="133.801" gradientUnits="userSpaceOnUse">
<stop stop-color="#60FFD6"/>
<stop offset="1" stop-color="#F4B1FF"/>
</linearGradient>
<linearGradient id="paint3_linear" x1="364.405" y1="70.2611" x2="0.000859718" y2="70.2611" gradientUnits="userSpaceOnUse">
<stop stop-color="#30D5AE"/>
<stop offset="1" stop-color="#520060"/>
</linearGradient>
</defs>
</svg>
