<svg width="360" height="169" viewBox="0 0 360 169" fill="none" xmlns="http://www.w3.org/2000/svg">
<path d="M359.486 58.6202C359.486 60.8578 357.493 62.5697 355.281 62.2318L333.493 58.9032C332.26 58.7149 331.045 58.4247 329.86 58.0358L294.584 46.4565C288.108 44.3306 281.282 43.477 274.481 43.9427L226.013 47.2616C221.676 47.5587 217.993 44.12 217.993 39.7721C217.993 35.7739 214.86 32.4772 210.867 32.2747L184.729 30.9496C182.311 30.827 179.912 30.4541 177.571 29.8368L168.605 27.473C161.827 25.6861 155.7 22.0028 150.942 16.8556C141.405 6.53783 126.83 2.54273 113.364 6.55558L91.6065 13.0398C86.4334 14.5814 81.6789 17.2799 77.7029 20.9307C74.2197 24.129 70.134 26.6009 65.6845 28.202L62.894 29.2062C58.1076 30.9285 53.0878 31.915 48.0056 32.132L26.4688 33.0518L4.05634 36.7935L-3.16702 38.2859C-4.11261 38.4812 -4.99918 37.7591 -4.99918 36.7935V55.9179V118.072C-4.99918 119.972 -3.37125 121.463 -1.47885 121.297L32.4789 118.319C34.3551 118.155 36.2417 118.144 38.1196 118.288L81.4812 121.606L110.976 120.451C123.034 119.978 135.062 121.95 146.338 126.246L149.47 127.439C171.316 135.762 195.676 134.366 216.428 123.601C221.383 121.03 226.587 118.972 231.96 117.459L303.76 97.2391C309.05 95.7495 314.487 94.8458 319.973 94.5441L342.403 93.3109C346.979 93.0592 351.289 91.0785 354.461 87.7694C357.686 84.4043 359.486 79.9234 359.486 75.2624V58.6202Z" fill="#E4B2F8" fill-opacity="0.5"/>
<path d="M359.486 58.6202C359.486 60.8578 357.493 62.5697 355.281 62.2318L333.493 58.9032C332.26 58.7149 331.045 58.4247 329.86 58.0358L294.584 46.4565C288.108 44.3306 281.282 43.477 274.481 43.9427L226.013 47.2616C221.676 47.5587 217.993 44.12 217.993 39.7721C217.993 35.7739 214.86 32.4772 210.867 32.2747L184.729 30.9496C182.311 30.827 179.912 30.4541 177.571 29.8368L168.605 27.473C161.827 25.6861 155.7 22.0028 150.942 16.8556C141.405 6.53783 126.83 2.54273 113.364 6.55558L91.6065 13.0398C86.4334 14.5814 81.6789 17.2799 77.7029 20.9307C74.2197 24.129 70.134 26.6009 65.6845 28.202L62.894 29.2062C58.1076 30.9285 53.0878 31.915 48.0056 32.132L26.4688 33.0518L4.05634 36.7935L-3.16702 38.2859C-4.11261 38.4812 -4.99918 37.7591 -4.99918 36.7935V55.9179V118.072C-4.99918 119.972 -3.37125 121.463 -1.47885 121.297L32.4789 118.319C34.3551 118.155 36.2417 118.144 38.1196 118.288L81.4812 121.606L110.976 120.451C123.034 119.978 135.062 121.95 146.338 126.246L149.47 127.439C171.316 135.762 195.676 134.366 216.428 123.601C221.383 121.03 226.587 118.972 231.96 117.459L303.76 97.2391C309.05 95.7495 314.487 94.8458 319.973 94.5441L342.403 93.3109C346.979 93.0592 351.289 91.0785 354.461 87.7694C357.686 84.4043 359.486 79.9234 359.486 75.2624V58.6202Z" fill="url(#paint0_linear)" fill-opacity="0.5"/>
<path d="M359.594 10.4791C358.839 20.4038 352.468 29.0195 343.199 32.6479L304.217 47.9081C288.397 54.1011 271.178 55.8205 254.446 52.878L210.906 45.2211C187.138 41.0412 162.849 40.7391 138.984 44.3264L108.511 48.9071C90.6733 51.5884 72.4457 49.6469 55.5728 43.2683L6.13007 24.5773C0.0987549 22.2972 -4.18204 16.8749 -5.00003 10.4791V168.18C-3.30548 142.564 16.7861 121.996 42.3549 119.7L68.0369 117.395C78.6185 116.445 89.284 117.554 99.4441 120.659L110.439 124.02C146.758 135.122 186.019 131.112 219.343 112.896L269.666 85.3886C278.976 80.2996 289.352 77.4726 299.957 77.136L359.442 75.2478C359.529 75.245 359.604 75.3074 359.618 75.3934C359.651 75.6042 359.962 75.5789 359.961 75.3655L359.594 10.4791Z" fill="#30D5AE" fill-opacity="0.8"/>
<path d="M359.594 10.4791C358.839 20.4038 352.468 29.0195 343.199 32.6479L304.217 47.9081C288.397 54.1011 271.178 55.8205 254.446 52.878L210.906 45.2211C187.138 41.0412 162.849 40.7391 138.984 44.3264L108.511 48.9071C90.6733 51.5884 72.4457 49.6469 55.5728 43.2683L6.13007 24.5773C0.0987549 22.2972 -4.18204 16.8749 -5.00003 10.4791V168.18C-3.30548 142.564 16.7861 121.996 42.3549 119.7L68.0369 117.395C78.6185 116.445 89.284 117.554 99.4441 120.659L110.439 124.02C146.758 135.122 186.019 131.112 219.343 112.896L269.666 85.3886C278.976 80.2996 289.352 77.4726 299.957 77.136L359.442 75.2478C359.529 75.245 359.604 75.3074 359.618 75.3934C359.651 75.6042 359.962 75.5789 359.961 75.3655L359.594 10.4791Z" fill="url(#paint1_linear)" fill-opacity="0.8"/>
<path d="M367 76.7567C367 61.6477 356.294 48.6569 341.464 45.7699L309.856 39.6167C291.937 36.1284 273.363 39.7123 258.028 49.6171L244.614 58.2811C224.876 71.0301 201.582 77.142 178.127 75.726L71.2411 69.2732C58.1946 68.4856 45.5316 64.5576 34.3298 57.8234L-0.145905 37.098C-3.15756 35.2875 -4.99969 32.0307 -4.99969 28.5167V60.0552C-4.99969 89.317 20.1572 112.244 49.2935 109.537C63.545 108.213 77.6754 113.097 88.0666 122.94L89.3171 124.124C103.368 137.434 123.513 142.117 141.994 136.368L253.068 101.821C263.669 98.5243 274.91 97.8394 285.832 99.8253L329.785 107.816C349.163 111.339 367 96.4524 367 76.7567Z" fill="#30D5AE" fill-opacity="0.4"/>
<path d="M367 76.7567C367 61.6477 356.294 48.6569 341.464 45.7699L309.856 39.6167C291.937 36.1284 273.363 39.7123 258.028 49.6171L244.614 58.2811C224.876 71.0301 201.582 77.142 178.127 75.726L71.2411 69.2732C58.1946 68.4856 45.5316 64.5576 34.3298 57.8234L-0.145905 37.098C-3.15756 35.2875 -4.99969 32.0307 -4.99969 28.5167V60.0552C-4.99969 89.317 20.1572 112.244 49.2935 109.537C63.545 108.213 77.6754 113.097 88.0666 122.94L89.3171 124.124C103.368 137.434 123.513 142.117 141.994 136.368L253.068 101.821C263.669 98.5243 274.91 97.8394 285.832 99.8253L329.785 107.816C349.163 111.339 367 96.4524 367 76.7567Z" fill="url(#paint2_linear)" fill-opacity="0.6"/>
<path d="M359.486 58.6202C359.486 60.8578 357.493 62.5697 355.281 62.2318L333.493 58.9032C332.26 58.7149 331.045 58.4247 329.86 58.0358L294.584 46.4565C288.108 44.3306 281.282 43.477 274.481 43.9427L226.013 47.2616C221.676 47.5587 217.993 44.12 217.993 39.7721C217.993 35.7739 214.86 32.4772 210.867 32.2747L184.729 30.9496C182.311 30.827 179.912 30.4541 177.571 29.8368L168.605 27.473C161.827 25.6861 155.7 22.0028 150.942 16.8556C141.405 6.53783 126.83 2.54273 113.364 6.55558L91.6065 13.0398C86.4334 14.5814 81.6789 17.2799 77.7029 20.9307C74.2197 24.129 70.134 26.6009 65.6845 28.202L62.894 29.2062C58.1076 30.9285 53.0878 31.915 48.0056 32.132L26.4688 33.0518L4.05634 36.7935L-3.16702 38.2859C-4.11261 38.4812 -4.99918 37.7591 -4.99918 36.7935V55.9179V118.072C-4.99918 119.972 -3.37125 121.463 -1.47885 121.297L32.4789 118.319C34.3551 118.155 36.2417 118.144 38.1196 118.288L81.4812 121.606L110.976 120.451C123.034 119.978 135.062 121.95 146.338 126.246L149.47 127.439C171.316 135.762 195.676 134.366 216.428 123.601C221.383 121.03 226.587 118.972 231.96 117.459L303.76 97.2391C309.05 95.7495 314.487 94.8458 319.973 94.5441L342.403 93.3109C346.979 93.0592 351.289 91.0785 354.461 87.7694C357.686 84.4043 359.486 79.9234 359.486 75.2624V58.6202Z" fill="#E4B2F8" fill-opacity="0.5"/>
<path d="M359.486 58.6202C359.486 60.8578 357.493 62.5697 355.281 62.2318L333.493 58.9032C332.26 58.7149 331.045 58.4247 329.86 58.0358L294.584 46.4565C288.108 44.3306 281.282 43.477 274.481 43.9427L226.013 47.2616C221.676 47.5587 217.993 44.12 217.993 39.7721C217.993 35.7739 214.86 32.4772 210.867 32.2747L184.729 30.9496C182.311 30.827 179.912 30.4541 177.571 29.8368L168.605 27.473C161.827 25.6861 155.7 22.0028 150.942 16.8556C141.405 6.53783 126.83 2.54273 113.364 6.55558L91.6065 13.0398C86.4334 14.5814 81.6789 17.2799 77.7029 20.9307C74.2197 24.129 70.134 26.6009 65.6845 28.202L62.894 29.2062C58.1076 30.9285 53.0878 31.915 48.0056 32.132L26.4688 33.0518L4.05634 36.7935L-3.16702 38.2859C-4.11261 38.4812 -4.99918 37.7591 -4.99918 36.7935V55.9179V118.072C-4.99918 119.972 -3.37125 121.463 -1.47885 121.297L32.4789 118.319C34.3551 118.155 36.2417 118.144 38.1196 118.288L81.4812 121.606L110.976 120.451C123.034 119.978 135.062 121.95 146.338 126.246L149.47 127.439C171.316 135.762 195.676 134.366 216.428 123.601C221.383 121.03 226.587 118.972 231.96 117.459L303.76 97.2391C309.05 95.7495 314.487 94.8458 319.973 94.5441L342.403 93.3109C346.979 93.0592 351.289 91.0785 354.461 87.7694C357.686 84.4043 359.486 79.9234 359.486 75.2624V58.6202Z" fill="url(#paint3_linear)" fill-opacity="0.5"/>
<defs>
<linearGradient id="paint0_linear" x1="359.405" y1="70.2611" x2="-4.99914" y2="70.2611" gradientUnits="userSpaceOnUse">
<stop stop-color="#30D5AE"/>
<stop offset="1" stop-color="#520060"/>
</linearGradient>
<linearGradient id="paint1_linear" x1="177.297" y1="10.4791" x2="137.121" y2="116.427" gradientUnits="userSpaceOnUse">
<stop stop-color="#30D5AE"/>
<stop offset="1" stop-color="#B299FF"/>
</linearGradient>
<linearGradient id="paint2_linear" x1="175.672" y1="49.7113" x2="92.644" y2="133.801" gradientUnits="userSpaceOnUse">
<stop stop-color="#60FFD6"/>
<stop offset="1" stop-color="#F4B1FF"/>
</linearGradient>
<linearGradient id="paint3_linear" x1="359.405" y1="70.2611" x2="-4.99914" y2="70.2611" gradientUnits="userSpaceOnUse">
<stop stop-color="#30D5AE"/>
<stop offset="1" stop-color="#520060"/>
</linearGradient>
</defs>
</svg>
