<svg width="1920" height="976" viewBox="0 0 1920 976" fill="none" xmlns="http://www.w3.org/2000/svg">
<path d="M89.1312 558.698C86.1666 564.929 82.5481 569.741 78.2756 573.134C74.046 576.437 69.3905 578.541 64.309 579.446C59.3177 580.393 53.993 580.296 48.3347 579.154C42.7667 578.055 37.0931 576.131 31.314 573.381L21.0667 594.917L-7.78391 581.19L35.2031 490.845L64.0537 504.573C69.8329 507.322 74.9049 510.511 79.2699 514.138C83.7251 517.809 87.1594 521.879 89.5727 526.35C92.0763 530.863 93.359 535.848 93.4209 541.304C93.5258 546.669 92.0959 552.467 89.1312 558.698ZM42.9147 549L44.1337 549.58C47.9263 551.385 51.0434 551.816 53.4852 550.873C56.0602 549.884 58.0996 547.809 59.6034 544.648C61.1072 541.488 61.4094 538.641 60.51 536.109C59.744 533.53 57.4646 531.338 53.6721 529.534L52.453 528.954L42.9147 549ZM177.335 558.473L207.404 572.781L175.696 639.422L200.618 651.28L189.34 674.984L134.348 648.818L177.335 558.473ZM328.957 630.617L350.629 640.929L341.91 747.579L313.466 734.044L314.353 724.5L286.992 711.481L280.146 718.19L251.701 704.656L328.957 630.617ZM316.242 700.98L317.687 682.232L304.051 695.179L316.242 700.98ZM451.941 689.134L475.645 700.413L484.004 747.082L500.568 712.271L528.876 725.741L485.889 816.086L462.05 804.743L453.762 758.274L437.263 792.949L408.954 779.479L451.941 689.134Z" fill="#EFEFEF"/>
<path d="M1029.22 394.881C1031.75 396.637 1034.46 398.24 1037.37 399.692C1039.72 401.114 1042.43 402.507 1045.5 403.871C1048.69 405.274 1051.95 406.486 1055.26 407.507C1061.12 409.313 1064.72 408.049 1066.05 403.717C1066.56 402.06 1066.18 400.129 1064.91 397.923C1063.67 395.589 1061.97 392.971 1059.79 390.069C1057.78 387.078 1055.58 383.818 1053.18 380.288C1050.91 376.798 1048.88 372.964 1047.1 368.787C1045.44 364.65 1044.35 360.268 1043.82 355.64C1043.33 350.886 1043.91 345.833 1045.56 340.481C1047.41 334.492 1050.12 329.538 1053.7 325.618C1057.28 321.698 1061.45 318.798 1066.22 316.918C1070.98 315.037 1076.15 314.118 1081.72 314.159C1087.45 314.112 1093.25 314.991 1099.11 316.797C1102.17 317.739 1105.17 318.873 1108.11 320.197C1111.09 321.394 1113.75 322.493 1116.09 323.494C1118.78 324.74 1121.4 325.966 1123.96 327.173L1112.94 362.915C1111.96 362.473 1110.86 361.993 1109.62 361.473C1108.64 361.031 1107.53 360.55 1106.3 360.03C1105.06 359.51 1103.75 359.035 1102.34 358.603C1101.58 358.367 1100.6 358.136 1099.42 357.911C1098.27 357.557 1097.15 357.351 1096.05 357.292C1094.95 357.232 1093.92 357.404 1092.96 357.805C1092 358.207 1091.35 358.981 1090.99 360.128C1090.68 361.147 1091.11 362.677 1092.3 364.716C1093.61 366.795 1095.16 369.226 1096.96 372.011C1098.88 374.835 1100.89 378.036 1103 381.615C1105.23 385.233 1107.03 389.135 1108.39 393.322C1109.88 397.547 1110.78 402.081 1111.11 406.924C1111.55 411.806 1110.95 416.923 1109.31 422.275C1107.58 427.881 1105.06 432.895 1101.74 437.315C1098.47 441.607 1094.35 445.012 1089.39 447.53C1084.59 449.959 1078.95 451.29 1072.46 451.523C1065.93 451.883 1058.65 450.827 1050.63 448.354C1045.78 446.862 1041.34 445.213 1037.29 443.408C1033.33 441.769 1029.86 440.141 1026.87 438.522C1023.37 436.747 1020.23 434.942 1017.44 433.108L1029.22 394.881ZM1237.54 362.795L1278.25 375.338L1264.89 418.726L1287.63 425.733L1301 382.346L1341.9 394.948L1302.62 522.434L1261.72 509.832L1276.27 462.622L1253.52 455.615L1238.98 502.825L1198.26 490.282L1237.54 362.795ZM1484.91 439.007L1515.49 448.429L1524.57 590.814L1484.43 578.448L1483.76 565.685L1445.15 553.789L1437.41 563.962L1397.28 551.596L1484.91 439.007ZM1481.71 534.29L1480 509.277L1464.51 528.99L1481.71 534.29ZM1658.46 492.475L1702.42 506.019C1710.57 508.532 1717.76 511.931 1723.97 516.217C1730.31 520.543 1735.38 525.593 1739.18 531.368C1742.98 537.144 1745.32 543.585 1746.2 550.692C1747.25 557.711 1746.54 565.235 1744.06 573.263C1742.1 579.634 1739.54 584.774 1736.38 588.685C1733.22 592.595 1730.11 595.682 1727.04 597.945C1723.47 600.473 1719.74 602.393 1715.85 603.705L1726.79 653.115L1679 638.394L1669.84 600.203L1659.89 632.505L1619.18 619.962L1658.46 492.475ZM1679.85 567.71L1681.95 568.358C1686.8 569.85 1691.21 570.023 1695.19 568.878C1699.3 567.771 1702.14 564.67 1703.71 559.573C1705.28 554.476 1704.67 550.314 1701.9 547.088C1699.26 543.901 1695.51 541.562 1690.67 540.07L1688.57 539.422L1679.85 567.71ZM1861.63 555.073L1936.75 578.215L1926.44 611.664L1892.04 601.064L1887.68 615.208L1921.51 625.631L1911.74 657.359L1877.91 646.936L1873.37 661.654L1909.11 672.665L1898.81 706.114L1822.36 682.559L1861.63 555.073Z" fill="#F7F7F7"/>
<path d="M-25.9627 275.65L30.1347 268.917L50.0036 434.479L-6.09391 441.212L-25.9627 275.65ZM191.452 249.558L234.89 244.345L288.218 302.656L280.562 238.864L332.44 232.638L352.309 398.2L308.623 403.443L255.573 345.35L263.198 408.894L211.321 415.12L191.452 249.558ZM502.942 328.002C506.721 328.723 510.636 329.177 514.687 329.362C518.096 329.792 521.899 330.007 526.096 330.007C530.458 329.987 534.79 329.719 539.092 329.203C546.704 328.289 550.173 325.019 549.498 319.393C549.239 317.242 547.823 315.23 545.248 313.357C542.653 311.318 539.377 309.193 535.418 306.982C531.606 304.586 527.432 301.982 522.898 299.168C518.53 296.336 514.267 292.986 510.11 289.121C506.118 285.235 502.647 280.784 499.695 275.767C496.722 270.584 494.819 264.517 493.985 257.567C493.052 249.79 493.634 242.753 495.733 236.459C497.831 230.164 501.124 224.733 505.612 220.165C510.099 215.598 515.534 211.924 521.915 209.144C528.441 206.179 535.51 204.239 543.122 203.326C547.094 202.849 551.095 202.621 555.126 202.641C559.137 202.495 562.735 202.399 565.919 202.353C569.619 202.412 573.236 202.482 576.771 202.561L582.341 248.978C580.998 248.971 579.488 248.985 577.814 249.018C576.47 249.011 574.961 249.024 573.286 249.058C571.612 249.091 569.864 249.216 568.044 249.435C567.051 249.554 565.82 249.786 564.35 250.13C562.861 250.309 561.474 250.643 560.19 251.133C558.906 251.623 557.817 252.341 556.924 253.287C556.03 254.234 555.673 255.452 555.851 256.941C556.01 258.265 557.285 259.791 559.674 261.518C562.229 263.226 565.238 265.215 568.699 267.485C572.327 269.736 576.252 272.37 580.475 275.389C584.864 278.387 588.898 281.932 592.578 286.022C596.424 290.093 599.76 294.812 602.587 300.181C605.578 305.529 607.491 311.678 608.326 318.628C609.199 325.909 608.865 332.916 607.323 339.647C605.761 346.214 602.786 352.194 598.397 357.589C594.154 362.798 588.386 367.183 581.091 370.744C573.817 374.471 564.967 376.96 554.542 378.211C548.254 378.966 542.339 379.34 536.799 379.333C531.444 379.472 526.649 379.376 522.412 379.045C517.514 378.794 513.01 378.327 508.899 377.646L502.942 328.002ZM885.813 230.185C887.183 241.603 886.369 251.604 883.371 260.189C880.352 268.609 875.666 275.718 869.312 281.516C863.123 287.295 855.534 291.899 846.545 295.327C837.722 298.736 828.015 301.076 817.424 302.347L822.16 341.814L769.29 348.159L749.421 182.597L802.292 176.252C812.882 174.981 822.867 174.958 832.247 176.182C841.792 177.387 850.254 180.064 857.635 184.215C865.181 188.345 871.426 194.226 876.37 201.858C881.295 209.324 884.443 218.766 885.813 230.185ZM812.062 257.668L814.296 257.4C821.246 256.566 826.022 254.398 828.623 250.896C831.37 247.209 832.396 242.47 831.701 236.678C831.006 230.887 828.898 226.607 825.376 223.841C822.001 220.888 816.838 219.829 809.887 220.663L807.654 220.932L812.062 257.668ZM1034.71 148.36L1090.81 141.628L1110.67 307.19L1054.58 313.922L1034.71 148.36ZM1252.12 122.269L1309.21 115.417C1319.8 114.146 1329.74 114.381 1339.01 116.122C1348.45 117.843 1356.8 121.037 1364.08 125.703C1371.35 130.37 1377.3 136.539 1381.91 144.21C1386.67 151.696 1389.68 160.652 1390.93 171.077C1391.92 179.351 1391.61 186.523 1389.98 192.593C1388.36 198.663 1386.37 203.77 1384.02 207.913C1381.22 212.613 1377.94 216.7 1374.16 220.175L1411.74 271.06L1349.68 278.507L1319.83 239.537L1324.86 281.486L1271.99 287.831L1252.12 122.269ZM1314.76 197.34L1317.49 197.012C1323.78 196.257 1328.91 194.215 1332.87 190.886C1337 187.536 1338.67 182.552 1337.88 175.933C1337.08 169.314 1334.28 164.866 1329.48 162.589C1324.84 160.292 1319.37 159.521 1313.09 160.275L1310.36 160.603L1314.76 197.34ZM1540.8 87.6246L1638.35 75.9177L1643.57 119.356L1598.89 124.718L1601.09 143.086L1645.03 137.814L1649.97 179.018L1606.04 184.291L1608.33 203.403L1654.75 197.833L1659.96 241.271L1560.67 253.187L1540.8 87.6246Z" fill="#E9E9E9"/>
<path d="M1158.2 915.284C1156.84 910.127 1156.52 905.248 1157.23 900.646C1157.93 895.98 1159.43 891.755 1161.74 887.973C1164.05 884.191 1167.07 880.982 1170.79 878.345C1174.48 875.644 1178.65 873.681 1183.3 872.455C1186.97 871.485 1190.32 870.979 1193.34 870.939C1196.43 870.882 1199.12 871.032 1201.42 871.39C1204.08 871.791 1206.44 872.375 1208.51 873.14L1203.08 893.708C1201.84 893.206 1200.52 892.763 1199.11 892.378C1197.88 892.151 1196.43 892.017 1194.76 891.974C1193.14 891.85 1191.37 892.044 1189.43 892.554C1187.43 893.082 1185.69 893.922 1184.2 895.073C1182.71 896.225 1181.49 897.584 1180.52 899.149C1179.62 900.697 1179.04 902.402 1178.77 904.266C1178.49 906.064 1178.59 907.898 1179.08 909.767C1179.58 911.637 1180.4 913.316 1181.55 914.804C1182.75 916.211 1184.16 917.357 1185.77 918.241C1187.38 919.125 1189.15 919.692 1191.08 919.941C1193.01 920.191 1195 920.043 1197.07 919.498C1199.13 918.953 1200.9 918.21 1202.37 917.269C1203.85 916.328 1205.05 915.39 1205.97 914.456C1207.08 913.407 1207.98 912.271 1208.69 911.049L1223.57 926.254C1222.2 928.132 1220.47 929.933 1218.38 931.659C1216.55 933.106 1214.29 934.6 1211.6 936.139C1208.9 937.679 1205.68 938.942 1201.95 939.93C1196.92 941.258 1192.06 941.678 1187.38 941.19C1182.69 940.638 1178.4 939.288 1174.52 937.14C1170.65 934.992 1167.29 932.085 1164.46 928.42C1161.62 924.69 1159.53 920.311 1158.2 915.284ZM1258.24 888.861C1257.01 884.22 1256.73 879.607 1257.38 875.022C1258.09 870.42 1259.56 866.204 1261.79 862.375C1264.07 858.464 1267.04 855.093 1270.71 852.263C1274.35 849.369 1278.5 847.309 1283.14 846.083C1287.78 844.857 1292.4 844.602 1297 845.317C1301.59 845.968 1305.81 847.44 1309.65 849.734C1313.55 851.946 1316.91 854.885 1319.74 858.551C1322.63 862.199 1324.69 866.344 1325.92 870.985C1327.14 875.625 1327.4 880.247 1326.68 884.849C1326.03 889.434 1324.57 893.682 1322.29 897.593C1320.06 901.422 1317.12 904.784 1313.48 907.679C1309.81 910.508 1305.66 912.536 1301.02 913.762C1296.38 914.988 1291.76 915.275 1287.18 914.625C1282.58 913.909 1278.33 912.446 1274.43 910.233C1270.59 907.94 1267.22 904.969 1264.32 901.32C1261.49 897.655 1259.46 893.501 1258.24 888.861ZM1278.54 883.498C1279.04 885.367 1279.86 887.046 1281.01 888.534C1282.15 889.959 1283.49 891.121 1285.03 892.022C1286.58 892.924 1288.26 893.516 1290.06 893.799C1291.92 894.066 1293.78 893.952 1295.65 893.458C1297.52 892.965 1299.17 892.15 1300.59 891.016C1302.08 889.864 1303.28 888.514 1304.18 886.966C1305.08 885.418 1305.67 883.745 1305.96 881.946C1306.22 880.083 1306.11 878.217 1305.61 876.347C1305.12 874.478 1304.31 872.831 1303.17 871.407C1302.02 869.919 1300.67 868.724 1299.12 867.823C1297.57 866.921 1295.87 866.338 1294.01 866.071C1292.21 865.788 1290.37 865.893 1288.5 866.387C1286.63 866.88 1284.96 867.703 1283.47 868.855C1282.04 869.989 1280.88 871.331 1279.98 872.879C1279.08 874.427 1278.49 876.133 1278.23 877.996C1277.94 879.795 1278.05 881.629 1278.54 883.498ZM1369.14 825.024L1386.15 820.529L1409.51 840.837L1419.7 811.668L1436.72 807.173L1453.75 871.662L1433.16 877.101L1427.03 853.897L1418.99 876.707L1400.64 860.868L1406.76 884.073L1386.17 889.512L1369.14 825.024ZM1546.52 804.443C1547.69 808.891 1547.92 812.898 1547.21 816.465C1546.48 819.967 1545.02 823.043 1542.82 825.692C1540.69 828.323 1537.94 830.567 1534.57 832.423C1531.26 834.262 1527.54 835.726 1523.42 836.815L1527.48 852.188L1506.89 857.628L1489.85 793.139L1510.45 787.7C1514.57 786.61 1518.53 786.048 1522.31 786.014C1526.16 785.963 1529.66 786.556 1532.81 787.791C1536.03 789.01 1538.83 790.994 1541.21 793.744C1543.57 796.429 1545.34 799.996 1546.52 804.443ZM1518.82 819.412L1519.69 819.182C1522.4 818.467 1524.17 817.344 1525.01 815.813C1525.89 814.201 1526.04 812.266 1525.44 810.01C1524.85 807.754 1523.77 806.176 1522.23 805.275C1520.72 804.292 1518.62 804.158 1515.91 804.873L1515.04 805.103L1518.82 819.412ZM1591.31 766.342L1629.3 756.306L1633.77 773.226L1616.37 777.822L1618.26 784.977L1635.37 780.457L1639.61 796.507L1622.5 801.027L1624.47 808.471L1642.55 803.696L1647.01 820.616L1608.34 830.831L1591.31 766.342ZM1695.16 757.011L1683.27 760.152L1678.8 743.232L1723.86 731.332L1728.33 748.251L1716.43 751.392L1729 798.961L1707.73 804.579L1695.16 757.011ZM1773.63 718.185L1811.63 708.149L1816.1 725.068L1798.7 729.665L1800.59 736.82L1817.7 732.3L1821.94 748.349L1804.82 752.869L1806.79 760.314L1824.87 755.538L1829.34 772.458L1790.67 782.673L1773.63 718.185Z" fill="#F5F5F5"/>
</svg>
