<svg width="1917" height="549" viewBox="0 0 1917 549" fill="none" xmlns="http://www.w3.org/2000/svg">
<path d="M1919.43 191.196C1919.43 198.638 1913.03 204.465 1905.62 203.764L1772.79 191.196L1539.05 143.675C1530.39 141.914 1521.55 141.213 1512.72 141.588L1199.95 154.853C1185.97 155.446 1174.31 144.272 1174.31 130.28C1174.31 116.998 1163.77 106.115 1150.49 105.698L979.986 100.344L882.981 84.504C867.558 81.9854 852.856 76.1797 839.873 67.4804L776.009 24.688C752.386 8.8594 723.513 2.88889 695.549 8.0503L485.444 46.8311C473.463 49.0427 461.936 53.2476 451.345 59.2708L421.948 75.9887C412.525 81.3476 402.356 85.2708 391.775 87.6289L329.803 101.441C322.959 102.966 315.983 103.827 308.974 104.013L165.72 107.802L47.6931 120.006L6.05823 125.333C2.84753 125.744 0.00561523 123.243 0.00561523 120.006V182.382V385.104C0.00561523 391.366 5.26184 396.344 11.5146 396.005L212.216 385.104L455.422 396.63L692.951 390.868C702.262 390.642 711.563 391.611 720.628 393.75L964.783 451.364C984.089 455.92 1004.27 455.121 1023.16 449.053L1205.31 390.528L1667.88 309.846L1845.95 303.782C1859.71 303.313 1873.08 299.119 1884.65 291.645C1906.34 277.63 1919.43 253.572 1919.43 227.751V191.196Z" fill="#E4B2F8" fill-opacity="0.5"/>
<path d="M1919.43 191.196C1919.43 198.638 1913.03 204.465 1905.62 203.764L1772.79 191.196L1539.05 143.675C1530.39 141.914 1521.55 141.213 1512.72 141.588L1199.95 154.853C1185.97 155.446 1174.31 144.272 1174.31 130.28C1174.31 116.998 1163.77 106.115 1150.49 105.698L979.986 100.344L882.981 84.504C867.558 81.9854 852.856 76.1797 839.873 67.4804L776.009 24.688C752.386 8.8594 723.513 2.88889 695.549 8.0503L485.444 46.8311C473.463 49.0427 461.936 53.2476 451.345 59.2708L421.948 75.9887C412.525 81.3476 402.356 85.2708 391.775 87.6289L329.803 101.441C322.959 102.966 315.983 103.827 308.974 104.013L165.72 107.802L47.6931 120.006L6.05823 125.333C2.84753 125.744 0.00561523 123.243 0.00561523 120.006V182.382V385.104C0.00561523 391.366 5.26184 396.344 11.5146 396.005L212.216 385.104L455.422 396.63L692.951 390.868C702.262 390.642 711.563 391.611 720.628 393.75L964.783 451.364C984.089 455.92 1004.27 455.121 1023.16 449.053L1205.31 390.528L1667.88 309.846L1845.95 303.782C1859.71 303.313 1873.08 299.119 1884.65 291.645C1906.34 277.63 1919.43 253.572 1919.43 227.751V191.196Z" fill="url(#paint0_linear)" fill-opacity="0.5"/>
<path d="M1920 34.1787C1916.09 66.0352 1892.85 92.1346 1861.65 99.6974L1573.93 169.458C1525.68 181.158 1475.76 184.392 1426.39 179.015L991.075 131.601C962.431 128.481 933.545 128.255 904.855 130.926L524.053 166.378C477.988 170.667 431.531 167.476 386.485 156.929L9.06567 68.5606C7.80627 68.2658 6.83276 67.2663 6.57129 65.9996C5.76282 62.085 0.000244141 62.6738 0.000244141 66.671V548.537C8.93762 464.86 77.1959 399.988 161.219 395.317L416.775 381.108C451.463 379.18 486.257 381.472 520.393 387.935L796.321 440.175C868.877 453.912 943.75 448.688 1013.69 425.007L1459.32 274.139C1500.2 260.3 1542.96 252.825 1586.1 251.977L1919.29 245.427C1919.7 245.419 1920.07 245.697 1920.17 246.099C1920.43 247.121 1921.94 246.925 1921.93 245.87L1920 34.1787Z" fill="#30D5AE" fill-opacity="0.8"/>
<path d="M1920 34.1787C1916.09 66.0352 1892.85 92.1346 1861.65 99.6974L1573.93 169.458C1525.68 181.158 1475.76 184.392 1426.39 179.015L991.075 131.601C962.431 128.481 933.545 128.255 904.855 130.926L524.053 166.378C477.988 170.667 431.531 167.476 386.485 156.929L9.06567 68.5606C7.80627 68.2658 6.83276 67.2663 6.57129 65.9996C5.76282 62.085 0.000244141 62.6738 0.000244141 66.671V548.537C8.93762 464.86 77.1959 399.988 161.219 395.317L416.775 381.108C451.463 379.18 486.257 381.472 520.393 387.935L796.321 440.175C868.877 453.912 943.75 448.688 1013.69 425.007L1459.32 274.139C1500.2 260.3 1542.96 252.825 1586.1 251.977L1919.29 245.427C1919.7 245.419 1920.07 245.697 1920.17 246.099C1920.43 247.121 1921.94 246.925 1921.93 245.87L1920 34.1787Z" fill="url(#paint1_linear)" fill-opacity="0.8"/>
<path d="M1959 257.553C1959 205.02 1919.76 160.766 1867.61 154.478L1558.21 117.173C1527.23 113.439 1495.82 117.555 1466.86 129.142L1191.12 239.447C1166.98 249.107 1141.07 253.595 1115.09 252.623L326.818 223.149C307.009 222.409 287.445 218.506 268.867 211.589L17.3127 117.927C6.90491 114.052 0.0020752 104.116 0.0020752 93.0101V176.709C0.0020752 283.635 89.9401 368.545 196.69 362.401L347.773 353.706C384.437 351.595 420.905 360.386 452.58 378.969L556.036 439.663C595.008 462.527 640.971 470.423 685.339 461.876L1416.17 321.092C1434.62 317.538 1453.5 316.8 1472.17 318.902L1843.56 360.723C1905.11 367.654 1959 319.493 1959 257.553Z" fill="#30D5AE" fill-opacity="0.4"/>
<path d="M1959 257.553C1959 205.02 1919.76 160.766 1867.61 154.478L1558.21 117.173C1527.23 113.439 1495.82 117.555 1466.86 129.142L1191.12 239.447C1166.98 249.107 1141.07 253.595 1115.09 252.623L326.818 223.149C307.009 222.409 287.445 218.506 268.867 211.589L17.3127 117.927C6.90491 114.052 0.0020752 104.116 0.0020752 93.0101V176.709C0.0020752 283.635 89.9401 368.545 196.69 362.401L347.773 353.706C384.437 351.595 420.905 360.386 452.58 378.969L556.036 439.663C595.008 462.527 640.971 470.423 685.339 461.876L1416.17 321.092C1434.62 317.538 1453.5 316.8 1472.17 318.902L1843.56 360.723C1905.11 367.654 1959 319.493 1959 257.553Z" fill="url(#paint2_linear)" fill-opacity="0.6"/>
<path d="M1919.43 191.196C1919.43 198.638 1913.03 204.465 1905.62 203.764L1772.79 191.196L1539.05 143.675C1530.39 141.914 1521.55 141.213 1512.72 141.588L1199.95 154.853C1185.97 155.446 1174.31 144.272 1174.31 130.28C1174.31 116.998 1163.77 106.115 1150.49 105.698L979.986 100.344L882.981 84.504C867.558 81.9854 852.856 76.1797 839.873 67.4804L776.009 24.688C752.386 8.8594 723.513 2.88889 695.549 8.0503L485.444 46.8311C473.463 49.0427 461.936 53.2476 451.345 59.2708L421.948 75.9887C412.525 81.3476 402.356 85.2708 391.775 87.6289L329.803 101.441C322.959 102.966 315.983 103.827 308.974 104.013L165.72 107.802L47.6931 120.006L6.05823 125.333C2.84753 125.744 0.00561523 123.243 0.00561523 120.006V182.382V385.104C0.00561523 391.366 5.26184 396.344 11.5146 396.005L212.216 385.104L455.422 396.63L692.951 390.868C702.262 390.642 711.563 391.611 720.628 393.75L964.783 451.364C984.089 455.92 1004.27 455.121 1023.16 449.053L1205.31 390.528L1667.88 309.846L1845.95 303.782C1859.71 303.313 1873.08 299.119 1884.65 291.645C1906.34 277.63 1919.43 253.572 1919.43 227.751V191.196Z" fill="#E4B2F8" fill-opacity="0.5"/>
<path d="M1919.43 191.196C1919.43 198.638 1913.03 204.465 1905.62 203.764L1772.79 191.196L1539.05 143.675C1530.39 141.914 1521.55 141.213 1512.72 141.588L1199.95 154.853C1185.97 155.446 1174.31 144.272 1174.31 130.28C1174.31 116.998 1163.77 106.115 1150.49 105.698L979.986 100.344L882.981 84.504C867.558 81.9854 852.856 76.1797 839.873 67.4804L776.009 24.688C752.386 8.8594 723.513 2.88889 695.549 8.0503L485.444 46.8311C473.463 49.0427 461.936 53.2476 451.345 59.2708L421.948 75.9887C412.525 81.3476 402.356 85.2708 391.775 87.6289L329.803 101.441C322.959 102.966 315.983 103.827 308.974 104.013L165.72 107.802L47.6931 120.006L6.05823 125.333C2.84753 125.744 0.00561523 123.243 0.00561523 120.006V182.382V385.104C0.00561523 391.366 5.26184 396.344 11.5146 396.005L212.216 385.104L455.422 396.63L692.951 390.868C702.262 390.642 711.563 391.611 720.628 393.75L964.783 451.364C984.089 455.92 1004.27 455.121 1023.16 449.053L1205.31 390.528L1667.88 309.846L1845.95 303.782C1859.71 303.313 1873.08 299.119 1884.65 291.645C1906.34 277.63 1919.43 253.572 1919.43 227.751V191.196Z" fill="url(#paint3_linear)" fill-opacity="0.5"/>
<defs>
<linearGradient id="paint0_linear" x1="1919" y1="229.164" x2="0.00580346" y2="229.164" gradientUnits="userSpaceOnUse">
<stop stop-color="#30D5AE"/>
<stop offset="1" stop-color="#520060"/>
</linearGradient>
<linearGradient id="paint1_linear" x1="959.999" y1="34.1787" x2="872.023" y2="408.766" gradientUnits="userSpaceOnUse">
<stop stop-color="#30D5AE"/>
<stop offset="1" stop-color="#B299FF"/>
</linearGradient>
<linearGradient id="paint2_linear" x1="951.443" y1="162.139" x2="710.361" y2="556.362" gradientUnits="userSpaceOnUse">
<stop stop-color="#60FFD6"/>
<stop offset="1" stop-color="#F4B1FF"/>
</linearGradient>
<linearGradient id="paint3_linear" x1="1919" y1="229.164" x2="0.00580346" y2="229.164" gradientUnits="userSpaceOnUse">
<stop stop-color="#30D5AE"/>
<stop offset="1" stop-color="#520060"/>
</linearGradient>
</defs>
</svg>
