<svg width="1919" height="549" viewBox="0 0 1919 549" fill="none" xmlns="http://www.w3.org/2000/svg">
<path d="M-9.25049 357.341C-9.25047 349.898 -2.84676 344.069 4.56335 344.767L138.063 357.341L372.997 404.886C381.62 406.631 390.424 407.326 399.215 406.954L713.659 393.679C727.637 393.089 739.292 404.262 739.292 418.253C739.292 431.537 749.841 442.421 763.119 442.836L934.512 448.193L1032.15 464.063C1047.52 466.562 1062.18 472.328 1075.14 480.971L1139.7 524.031C1163.26 539.748 1192.02 545.675 1219.88 540.556L1431.47 501.68C1443.41 499.485 1454.9 495.311 1465.47 489.33L1495.21 472.493C1504.61 467.171 1514.75 463.276 1525.3 460.936L1587.77 447.076C1594.59 445.564 1601.53 444.711 1608.51 444.527L1752.52 440.735L1871.09 428.531L1912.94 423.2C1916.15 422.791 1918.99 425.294 1918.99 428.531V366.155V163.433C1918.99 157.171 1913.74 152.191 1907.49 152.53L1705.81 163.433L1461.49 151.907L1222.74 157.672C1213.47 157.896 1204.21 156.936 1195.18 154.816L949.522 97.1111C930.296 92.5948 910.203 93.3873 891.392 99.4036L708.153 158.009L243.457 238.691L64.4576 244.759C50.7067 245.225 37.3378 249.401 25.7665 256.845C3.94121 270.885 -9.25049 295.057 -9.25049 321.008V357.341Z" fill="#E4B2F8" fill-opacity="0.5"/>
<path d="M-9.25049 357.341C-9.25047 349.898 -2.84676 344.069 4.56335 344.767L138.063 357.341L372.997 404.886C381.62 406.631 390.424 407.326 399.215 406.954L713.659 393.679C727.637 393.089 739.292 404.262 739.292 418.253C739.292 431.537 749.841 442.421 763.119 442.836L934.512 448.193L1032.15 464.063C1047.52 466.562 1062.18 472.328 1075.14 480.971L1139.7 524.031C1163.26 539.748 1192.02 545.675 1219.88 540.556L1431.47 501.68C1443.41 499.485 1454.9 495.311 1465.47 489.33L1495.21 472.493C1504.61 467.171 1514.75 463.276 1525.3 460.936L1587.77 447.076C1594.59 445.564 1601.53 444.711 1608.51 444.527L1752.52 440.735L1871.09 428.531L1912.94 423.2C1916.15 422.791 1918.99 425.294 1918.99 428.531V366.155V163.433C1918.99 157.171 1913.74 152.191 1907.49 152.53L1705.81 163.433L1461.49 151.907L1222.74 157.672C1213.47 157.896 1204.21 156.936 1195.18 154.816L949.522 97.1111C930.296 92.5948 910.203 93.3873 891.392 99.4036L708.153 158.009L243.457 238.691L64.4576 244.759C50.7067 245.225 37.3378 249.401 25.7665 256.845C3.94121 270.885 -9.25049 295.057 -9.25049 321.008V357.341Z" fill="url(#paint0_linear)" fill-opacity="0.5"/>
<path d="M-9.81894 514.358C-5.89062 482.505 17.3726 456.423 48.5716 448.893L338.485 378.923C386.537 367.325 436.232 364.12 485.376 369.448L923.764 416.979C952.28 420.071 981.034 420.295 1009.59 417.648L1393.17 382.1C1439.03 377.85 1485.28 381.013 1530.13 391.467L1909.89 479.976C1911.16 480.271 1912.14 481.274 1912.4 482.546C1913.22 486.476 1919 485.882 1919 481.869V0.000244141C1910.02 83.6818 1841.73 148.533 1757.7 153.184L1499.83 167.455C1465.3 169.366 1430.66 167.094 1396.68 160.689L1118.03 108.175C1045.78 94.5587 971.243 99.7389 901.572 123.218L452.844 274.443C411.865 288.253 369.014 295.71 325.779 296.557L-9.10896 303.11C-9.52494 303.118 -9.8919 302.839 -9.99513 302.436C-10.258 301.41 -11.7701 301.608 -11.7604 302.667L-9.81894 514.358Z" fill="#30D5AE" fill-opacity="0.8"/>
<path d="M-9.81894 514.358C-5.89062 482.505 17.3726 456.423 48.5716 448.893L338.485 378.923C386.537 367.325 436.232 364.12 485.376 369.448L923.764 416.979C952.28 420.071 981.034 420.295 1009.59 417.648L1393.17 382.1C1439.03 377.85 1485.28 381.013 1530.13 391.467L1909.89 479.976C1911.16 480.271 1912.14 481.274 1912.4 482.546C1913.22 486.476 1919 485.882 1919 481.869V0.000244141C1910.02 83.6818 1841.73 148.533 1757.7 153.184L1499.83 167.455C1465.3 169.366 1430.66 167.094 1396.68 160.689L1118.03 108.175C1045.78 94.5587 971.243 99.7389 901.572 123.218L452.844 274.443C411.865 288.253 369.014 295.71 325.779 296.557L-9.10896 303.11C-9.52494 303.118 -9.8919 302.839 -9.99513 302.436C-10.258 301.41 -11.7701 301.608 -11.7604 302.667L-9.81894 514.358Z" fill="url(#paint1_linear)" fill-opacity="0.8"/>
<path d="M-49 290.93C-49 343.486 -9.72773 387.753 42.4541 394.016L354.058 431.415C384.9 435.116 416.177 431.035 445.036 419.543L722.709 308.969C746.768 299.388 772.562 294.937 798.44 295.9L1590.94 325.397C1610.67 326.132 1630.16 330.002 1648.67 336.862L1901.68 430.636C1912.09 434.494 1919 444.424 1919 455.527V371.776C1919 264.869 1829.09 179.966 1722.36 186.081L1569.14 194.859C1532.62 196.952 1496.29 188.228 1464.7 169.781L1359.94 108.6C1321.08 85.9062 1275.31 78.0705 1231.11 86.5453L496.074 227.493C477.707 231.015 458.913 231.747 440.327 229.664L66.3919 187.749C4.8554 180.852 -49 229.008 -49 290.93Z" fill="#30D5AE" fill-opacity="0.4"/>
<path d="M-49 290.93C-49 343.486 -9.72773 387.753 42.4541 394.016L354.058 431.415C384.9 435.116 416.177 431.035 445.036 419.543L722.709 308.969C746.768 299.388 772.562 294.937 798.44 295.9L1590.94 325.397C1610.67 326.132 1630.16 330.002 1648.67 336.862L1901.68 430.636C1912.09 434.494 1919 444.424 1919 455.527V371.776C1919 264.869 1829.09 179.966 1722.36 186.081L1569.14 194.859C1532.62 196.952 1496.29 188.228 1464.7 169.781L1359.94 108.6C1321.08 85.9062 1275.31 78.0705 1231.11 86.5453L496.074 227.493C477.707 231.015 458.913 231.747 440.327 229.664L66.3919 187.749C4.8554 180.852 -49 229.008 -49 290.93Z" fill="url(#paint2_linear)" fill-opacity="0.6"/>
<path d="M-9.25049 357.341C-9.25047 349.898 -2.84676 344.069 4.56335 344.767L138.063 357.341L372.997 404.886C381.62 406.631 390.424 407.326 399.215 406.954L713.659 393.679C727.637 393.089 739.292 404.262 739.292 418.253C739.292 431.537 749.841 442.421 763.119 442.836L934.512 448.193L1032.15 464.063C1047.52 466.562 1062.18 472.328 1075.14 480.971L1139.7 524.031C1163.26 539.748 1192.02 545.675 1219.88 540.556L1431.47 501.68C1443.41 499.485 1454.9 495.311 1465.47 489.33L1495.21 472.493C1504.61 467.171 1514.75 463.276 1525.3 460.936L1587.77 447.076C1594.59 445.564 1601.53 444.711 1608.51 444.527L1752.52 440.735L1871.09 428.531L1912.94 423.2C1916.15 422.791 1918.99 425.294 1918.99 428.531V366.155V163.433C1918.99 157.171 1913.74 152.191 1907.49 152.53L1705.81 163.433L1461.49 151.907L1222.74 157.672C1213.47 157.896 1204.21 156.936 1195.18 154.816L949.522 97.1111C930.296 92.5948 910.203 93.3873 891.392 99.4036L708.153 158.009L243.457 238.691L64.4576 244.759C50.7067 245.225 37.3378 249.401 25.7665 256.845C3.94121 270.885 -9.25049 295.057 -9.25049 321.008V357.341Z" fill="#E4B2F8" fill-opacity="0.5"/>
<path d="M-9.25049 357.341C-9.25047 349.898 -2.84676 344.069 4.56335 344.767L138.063 357.341L372.997 404.886C381.62 406.631 390.424 407.326 399.215 406.954L713.659 393.679C727.637 393.089 739.292 404.262 739.292 418.253C739.292 431.537 749.841 442.421 763.119 442.836L934.512 448.193L1032.15 464.063C1047.52 466.562 1062.18 472.328 1075.14 480.971L1139.7 524.031C1163.26 539.748 1192.02 545.675 1219.88 540.556L1431.47 501.68C1443.41 499.485 1454.9 495.311 1465.47 489.33L1495.21 472.493C1504.61 467.171 1514.75 463.276 1525.3 460.936L1587.77 447.076C1594.59 445.564 1601.53 444.711 1608.51 444.527L1752.52 440.735L1871.09 428.531L1912.94 423.2C1916.15 422.791 1918.99 425.294 1918.99 428.531V366.155V163.433C1918.99 157.171 1913.74 152.191 1907.49 152.53L1705.81 163.433L1461.49 151.907L1222.74 157.672C1213.47 157.896 1204.21 156.936 1195.18 154.816L949.522 97.1111C930.296 92.5948 910.203 93.3873 891.392 99.4036L708.153 158.009L243.457 238.691L64.4576 244.759C50.7067 245.225 37.3378 249.401 25.7665 256.845C3.94121 270.885 -9.25049 295.057 -9.25049 321.008V357.341Z" fill="url(#paint3_linear)" fill-opacity="0.5"/>
<defs>
<linearGradient id="paint0_linear" x1="-8.81932" y1="319.373" x2="1918.99" y2="319.373" gradientUnits="userSpaceOnUse">
<stop stop-color="#30D5AE"/>
<stop offset="1" stop-color="#520060"/>
</linearGradient>
<linearGradient id="paint1_linear" x1="954.59" y1="514.358" x2="1042.21" y2="139.592" gradientUnits="userSpaceOnUse">
<stop stop-color="#30D5AE"/>
<stop offset="1" stop-color="#B299FF"/>
</linearGradient>
<linearGradient id="paint2_linear" x1="963.186" y1="386.398" x2="1203.76" y2="-8.80623" gradientUnits="userSpaceOnUse">
<stop stop-color="#60FFD6"/>
<stop offset="1" stop-color="#F4B1FF"/>
</linearGradient>
<linearGradient id="paint3_linear" x1="-8.81932" y1="319.373" x2="1918.99" y2="319.373" gradientUnits="userSpaceOnUse">
<stop stop-color="#30D5AE"/>
<stop offset="1" stop-color="#520060"/>
</linearGradient>
</defs>
</svg>
