<svg width="1920" height="624" viewBox="0 0 1920 624" fill="none" xmlns="http://www.w3.org/2000/svg">
<path d="M-8.25049 357.341C-8.25047 349.898 -1.84676 344.069 5.56335 344.767L139.063 357.341L373.997 404.885C382.62 406.631 391.424 407.325 400.215 406.954L714.659 393.679C728.637 393.089 740.292 404.262 740.292 418.252C740.292 431.537 750.841 442.421 764.119 442.836L935.512 448.193L1033.15 464.063C1048.52 466.562 1063.18 472.327 1076.14 480.971L1140.7 524.03C1164.26 539.747 1193.02 545.674 1220.88 540.556L1432.47 501.679C1444.41 499.485 1455.9 495.311 1466.47 489.329L1496.21 472.493C1505.61 467.17 1515.75 463.275 1526.3 460.936L1588.77 447.076C1595.59 445.564 1602.53 444.71 1609.51 444.527L1753.52 440.735L1872.09 428.531L1913.94 423.2C1917.15 422.791 1919.99 425.293 1919.99 428.531V366.155V163.433C1919.99 157.171 1914.74 152.191 1908.49 152.529L1706.81 163.433L1462.49 151.907L1223.74 157.672C1214.47 157.896 1205.21 156.936 1196.18 154.816L950.522 97.1108C931.296 92.5946 911.203 93.387 892.392 99.4034L709.153 158.009L244.457 238.691L65.4576 244.759C51.7067 245.225 38.3378 249.401 26.7665 256.845C4.94121 270.885 -8.25049 295.056 -8.25049 321.008V357.341Z" fill="#E4B2F8" fill-opacity="0.5"/>
<path d="M-8.25049 357.341C-8.25047 349.898 -1.84676 344.069 5.56335 344.767L139.063 357.341L373.997 404.885C382.62 406.631 391.424 407.325 400.215 406.954L714.659 393.679C728.637 393.089 740.292 404.262 740.292 418.252C740.292 431.537 750.841 442.421 764.119 442.836L935.512 448.193L1033.15 464.063C1048.52 466.562 1063.18 472.327 1076.14 480.971L1140.7 524.03C1164.26 539.747 1193.02 545.674 1220.88 540.556L1432.47 501.679C1444.41 499.485 1455.9 495.311 1466.47 489.329L1496.21 472.493C1505.61 467.17 1515.75 463.275 1526.3 460.936L1588.77 447.076C1595.59 445.564 1602.53 444.71 1609.51 444.527L1753.52 440.735L1872.09 428.531L1913.94 423.2C1917.15 422.791 1919.99 425.293 1919.99 428.531V366.155V163.433C1919.99 157.171 1914.74 152.191 1908.49 152.529L1706.81 163.433L1462.49 151.907L1223.74 157.672C1214.47 157.896 1205.21 156.936 1196.18 154.816L950.522 97.1108C931.296 92.5946 911.203 93.387 892.392 99.4034L709.153 158.009L244.457 238.691L65.4576 244.759C51.7067 245.225 38.3378 249.401 26.7665 256.845C4.94121 270.885 -8.25049 295.056 -8.25049 321.008V357.341Z" fill="url(#paint0_linear)" fill-opacity="0.5"/>
<path d="M-8.81894 514.358C-4.89062 482.505 18.3726 456.423 49.5716 448.893L339.485 378.922C387.537 367.325 437.232 364.12 486.376 369.448L924.764 416.979C953.28 420.07 982.034 420.295 1010.59 417.648L1394.17 382.1C1440.03 377.85 1486.28 381.013 1531.13 391.467L1910.89 479.976C1912.16 480.271 1913.14 481.274 1913.4 482.546C1914.22 486.476 1920 485.882 1920 481.869V0C1911.02 83.6815 1842.73 148.533 1758.7 153.184L1500.83 167.455C1466.3 169.366 1431.66 167.094 1397.68 160.689L1119.03 108.174C1046.78 94.5584 972.243 99.7387 902.572 123.218L453.844 274.442C412.865 288.253 370.014 295.71 326.779 296.556L-8.10896 303.11C-8.52494 303.118 -8.8919 302.839 -8.99513 302.436C-9.25795 301.41 -10.7701 301.608 -10.7604 302.667L-8.81894 514.358Z" fill="#30D5AE" fill-opacity="0.8"/>
<path d="M-8.81894 514.358C-4.89062 482.505 18.3726 456.423 49.5716 448.893L339.485 378.922C387.537 367.325 437.232 364.12 486.376 369.448L924.764 416.979C953.28 420.07 982.034 420.295 1010.59 417.648L1394.17 382.1C1440.03 377.85 1486.28 381.013 1531.13 391.467L1910.89 479.976C1912.16 480.271 1913.14 481.274 1913.4 482.546C1914.22 486.476 1920 485.882 1920 481.869V0C1911.02 83.6815 1842.73 148.533 1758.7 153.184L1500.83 167.455C1466.3 169.366 1431.66 167.094 1397.68 160.689L1119.03 108.174C1046.78 94.5584 972.243 99.7387 902.572 123.218L453.844 274.442C412.865 288.253 370.014 295.71 326.779 296.556L-8.10896 303.11C-8.52494 303.118 -8.8919 302.839 -8.99513 302.436C-9.25795 301.41 -10.7701 301.608 -10.7604 302.667L-8.81894 514.358Z" fill="url(#paint1_linear)" fill-opacity="0.8"/>
<path d="M-48 290.929C-48 343.486 -8.72773 387.753 43.4541 394.016L355.058 431.414C385.9 435.116 417.177 431.034 446.036 419.543L723.709 308.969C747.768 299.388 773.562 294.937 799.44 295.9L1591.94 325.397C1611.67 326.132 1631.16 330.002 1649.67 336.862L1902.68 430.636C1913.09 434.494 1920 444.424 1920 455.527V371.776C1920 264.869 1830.09 179.966 1723.36 186.081L1570.14 194.859C1533.62 196.952 1497.29 188.228 1465.7 169.781L1360.94 108.6C1322.08 85.9061 1276.31 78.0704 1232.11 86.5452L497.074 227.493C478.707 231.015 459.913 231.747 441.327 229.663L67.3919 187.749C5.8554 180.852 -48 229.008 -48 290.929Z" fill="#30D5AE" fill-opacity="0.4"/>
<path d="M-48 290.929C-48 343.486 -8.72773 387.753 43.4541 394.016L355.058 431.414C385.9 435.116 417.177 431.034 446.036 419.543L723.709 308.969C747.768 299.388 773.562 294.937 799.44 295.9L1591.94 325.397C1611.67 326.132 1631.16 330.002 1649.67 336.862L1902.68 430.636C1913.09 434.494 1920 444.424 1920 455.527V371.776C1920 264.869 1830.09 179.966 1723.36 186.081L1570.14 194.859C1533.62 196.952 1497.29 188.228 1465.7 169.781L1360.94 108.6C1322.08 85.9061 1276.31 78.0704 1232.11 86.5452L497.074 227.493C478.707 231.015 459.913 231.747 441.327 229.663L67.3919 187.749C5.8554 180.852 -48 229.008 -48 290.929Z" fill="url(#paint2_linear)" fill-opacity="0.6"/>
<path d="M-8.25049 357.341C-8.25047 349.898 -1.84676 344.069 5.56335 344.767L139.063 357.341L373.997 404.885C382.62 406.631 391.424 407.325 400.215 406.954L714.659 393.679C728.637 393.089 740.292 404.262 740.292 418.252C740.292 431.537 750.841 442.421 764.119 442.836L935.512 448.193L1033.15 464.063C1048.52 466.562 1063.18 472.327 1076.14 480.971L1140.7 524.03C1164.26 539.747 1193.02 545.674 1220.88 540.556L1432.47 501.679C1444.41 499.485 1455.9 495.311 1466.47 489.329L1496.21 472.493C1505.61 467.17 1515.75 463.275 1526.3 460.936L1588.77 447.076C1595.59 445.564 1602.53 444.71 1609.51 444.527L1753.52 440.735L1872.09 428.531L1913.94 423.2C1917.15 422.791 1919.99 425.293 1919.99 428.531V366.155V163.433C1919.99 157.171 1914.74 152.191 1908.49 152.529L1706.81 163.433L1462.49 151.907L1223.74 157.672C1214.47 157.896 1205.21 156.936 1196.18 154.816L950.522 97.1108C931.296 92.5946 911.203 93.387 892.392 99.4034L709.153 158.009L244.457 238.691L65.4576 244.759C51.7067 245.225 38.3378 249.401 26.7665 256.845C4.94121 270.885 -8.25049 295.056 -8.25049 321.008V357.341Z" fill="#E4B2F8" fill-opacity="0.5"/>
<path d="M-8.25049 357.341C-8.25047 349.898 -1.84676 344.069 5.56335 344.767L139.063 357.341L373.997 404.885C382.62 406.631 391.424 407.325 400.215 406.954L714.659 393.679C728.637 393.089 740.292 404.262 740.292 418.252C740.292 431.537 750.841 442.421 764.119 442.836L935.512 448.193L1033.15 464.063C1048.52 466.562 1063.18 472.327 1076.14 480.971L1140.7 524.03C1164.26 539.747 1193.02 545.674 1220.88 540.556L1432.47 501.679C1444.41 499.485 1455.9 495.311 1466.47 489.329L1496.21 472.493C1505.61 467.17 1515.75 463.275 1526.3 460.936L1588.77 447.076C1595.59 445.564 1602.53 444.71 1609.51 444.527L1753.52 440.735L1872.09 428.531L1913.94 423.2C1917.15 422.791 1919.99 425.293 1919.99 428.531V366.155V163.433C1919.99 157.171 1914.74 152.191 1908.49 152.529L1706.81 163.433L1462.49 151.907L1223.74 157.672C1214.47 157.896 1205.21 156.936 1196.18 154.816L950.522 97.1108C931.296 92.5946 911.203 93.387 892.392 99.4034L709.153 158.009L244.457 238.691L65.4576 244.759C51.7067 245.225 38.3378 249.401 26.7665 256.845C4.94121 270.885 -8.25049 295.056 -8.25049 321.008V357.341Z" fill="url(#paint3_linear)" fill-opacity="0.5"/>
<g filter="url(#filter0_d)">
<circle cx="958" cy="471" r="137" fill="#260E4B"/>
<path d="M898.291 434.176C896.924 432.809 896.924 430.593 898.291 429.226L956.487 371.029C957.854 369.662 960.07 369.662 961.437 371.029L1018.93 428.519C1020.29 429.886 1020.29 432.102 1018.93 433.469L960.731 491.666C959.364 493.033 957.148 493.033 955.781 491.666L898.291 434.176Z" stroke="#30D5AE" stroke-width="3"/>
<line x1="929.572" y1="385.1" x2="919.756" y2="374.822" stroke="#30D5AE" stroke-width="3"/>
<rect x="893.694" y="446.959" width="129.731" height="70.4571" fill="#260E4B"/>
<line x1="912.82" y1="400.782" x2="895.477" y2="383.438" stroke="#30D5AE" stroke-width="3"/>
<line x1="990.643" y1="386.259" x2="1007.99" y2="368.916" stroke="#30D5AE" stroke-width="3"/>
<line x1="1007.59" y1="400.628" x2="1017.36" y2="390.748" stroke="#30D5AE" stroke-width="3"/>
<line x1="895.703" y1="447.704" x2="943.796" y2="447.704" stroke="#30D5AE" stroke-width="3"/>
<line x1="990.765" y1="447.704" x2="1023.2" y2="447.704" stroke="#30D5AE" stroke-width="3"/>
<line x1="927.018" y1="463.361" x2="975.111" y2="463.361" stroke="#30D5AE" stroke-width="3"/>
<line x1="895.703" y1="479.018" x2="1023.2" y2="479.018" stroke="#30D5AE" stroke-width="3"/>
<path d="M938.197 508.695C937.333 507.927 936.253 507.351 934.957 506.967C933.661 506.535 932.389 506.319 931.141 506.319C929.749 506.319 928.477 506.583 927.325 507.111C926.173 507.591 925.165 508.287 924.301 509.199C923.485 510.063 922.837 511.119 922.357 512.367C921.877 513.615 921.637 514.959 921.637 516.399C921.637 517.839 921.901 519.183 922.429 520.431C922.957 521.679 923.677 522.759 924.589 523.671C925.501 524.535 926.557 525.231 927.757 525.759C929.005 526.239 930.325 526.479 931.717 526.479C933.349 526.479 934.837 526.143 936.181 525.471C937.525 524.751 938.677 523.791 939.637 522.591H935.317V512.511H953.821V528.495C952.717 530.463 951.397 532.263 949.861 533.895C948.325 535.479 946.597 536.847 944.677 537.999C942.805 539.151 940.765 540.039 938.557 540.663C936.349 541.287 934.069 541.599 931.717 541.599C928.261 541.599 924.997 540.951 921.925 539.655C918.853 538.359 916.165 536.583 913.861 534.327C911.605 532.071 909.805 529.407 908.461 526.335C907.165 523.263 906.517 519.951 906.517 516.399C906.517 512.943 907.141 509.679 908.389 506.607C909.637 503.535 911.341 500.871 913.501 498.615C915.709 496.311 918.301 494.511 921.277 493.215C924.301 491.871 927.541 491.199 930.997 491.199C933.685 491.199 936.013 491.463 937.981 491.991C939.949 492.519 941.605 493.119 942.949 493.791C944.533 494.559 945.853 495.399 946.909 496.311L938.197 508.695ZM963.92 516.399C963.92 512.943 964.568 509.679 965.864 506.607C967.208 503.535 969.008 500.871 971.264 498.615C973.568 496.311 976.256 494.511 979.328 493.215C982.4 491.871 985.664 491.199 989.12 491.199C992.576 491.199 995.84 491.871 998.912 493.215C1001.98 494.511 1004.65 496.311 1006.9 498.615C1009.21 500.871 1011.01 503.535 1012.3 506.607C1013.65 509.679 1014.32 512.943 1014.32 516.399C1014.32 519.855 1013.65 523.119 1012.3 526.191C1011.01 529.263 1009.21 531.951 1006.9 534.255C1004.65 536.511 1001.98 538.311 998.912 539.655C995.84 540.951 992.576 541.599 989.12 541.599C985.664 541.599 982.4 540.951 979.328 539.655C976.256 538.311 973.568 536.511 971.264 534.255C969.008 531.951 967.208 529.263 965.864 526.191C964.568 523.119 963.92 519.855 963.92 516.399ZM979.04 516.399C979.04 517.791 979.304 519.111 979.832 520.359C980.36 521.559 981.08 522.615 981.992 523.527C982.904 524.439 983.96 525.159 985.16 525.687C986.408 526.215 987.728 526.479 989.12 526.479C990.512 526.479 991.808 526.215 993.008 525.687C994.256 525.159 995.336 524.439 996.248 523.527C997.16 522.615 997.88 521.559 998.408 520.359C998.936 519.111 999.2 517.791 999.2 516.399C999.2 515.007 998.936 513.711 998.408 512.511C997.88 511.263 997.16 510.183 996.248 509.271C995.336 508.359 994.256 507.639 993.008 507.111C991.808 506.583 990.512 506.319 989.12 506.319C987.728 506.319 986.408 506.583 985.16 507.111C983.96 507.639 982.904 508.359 981.992 509.271C981.08 510.183 980.36 511.263 979.832 512.511C979.304 513.711 979.04 515.007 979.04 516.399Z" fill="#30D5AE"/>
<path d="M922.109 551.04C923.485 551.04 924.645 551.32 925.589 551.88C926.533 552.44 927.333 553.24 927.989 554.28C928.181 554.584 928.277 554.872 928.277 555.144C928.277 555.496 928.117 555.784 927.797 556.008C927.621 556.12 927.413 556.176 927.173 556.176C926.933 556.176 926.709 556.12 926.501 556.008C926.293 555.88 926.133 555.712 926.021 555.504C925.589 554.784 925.045 554.24 924.389 553.872C923.749 553.488 922.933 553.296 921.941 553.296C920.725 553.296 919.741 553.536 918.989 554.016C918.237 554.48 917.861 555.16 917.861 556.056C917.861 556.888 918.197 557.584 918.869 558.144C919.541 558.704 920.741 559.072 922.469 559.248C924.389 559.44 925.877 560.024 926.933 561C927.989 561.96 928.517 563.232 928.517 564.816C928.517 565.968 928.205 566.96 927.581 567.792C926.957 568.608 926.125 569.224 925.085 569.64C924.061 570.04 922.957 570.24 921.773 570.24C920.221 570.24 918.805 569.888 917.525 569.184C916.261 568.48 915.389 567.56 914.909 566.424C914.829 566.232 914.789 566.072 914.789 565.944C914.789 565.704 914.877 565.496 915.053 565.32C915.229 565.128 915.469 565 915.773 564.936C915.821 564.92 915.901 564.912 916.013 564.912C916.269 564.912 916.509 564.992 916.733 565.152C916.973 565.296 917.149 565.496 917.261 565.752C917.549 566.376 918.117 566.904 918.965 567.336C919.813 567.768 920.749 567.984 921.773 567.984C922.973 567.984 923.989 567.712 924.821 567.168C925.653 566.608 926.069 565.848 926.069 564.888C926.069 563.976 925.717 563.2 925.013 562.56C924.309 561.904 923.237 561.504 921.797 561.36C919.813 561.168 918.253 560.592 917.117 559.632C915.981 558.656 915.413 557.44 915.413 555.984C915.413 554.96 915.701 554.08 916.277 553.344C916.869 552.592 917.669 552.024 918.677 551.64C919.701 551.24 920.845 551.04 922.109 551.04ZM963.641 567.696C964.009 567.696 964.305 567.8 964.529 568.008C964.753 568.216 964.865 568.488 964.865 568.824C964.865 569.176 964.753 569.464 964.529 569.688C964.305 569.896 964.009 570 963.641 570H952.793C952.441 570 952.145 569.88 951.905 569.64C951.665 569.4 951.545 569.104 951.545 568.752V552.504C951.545 552.136 951.665 551.84 951.905 551.616C952.145 551.376 952.441 551.256 952.793 551.256H963.641C964.009 551.256 964.305 551.368 964.529 551.592C964.753 551.8 964.865 552.08 964.865 552.432C964.865 552.768 964.753 553.04 964.529 553.248C964.305 553.456 964.009 553.56 963.641 553.56H954.041V559.392H960.929C961.281 559.392 961.569 559.504 961.793 559.728C962.033 559.936 962.153 560.208 962.153 560.544C962.153 560.88 962.033 561.16 961.793 561.384C961.569 561.592 961.281 561.696 960.929 561.696H954.041V567.696H963.641ZM999.645 567.696C1000.01 567.696 1000.31 567.8 1000.53 568.008C1000.76 568.216 1000.87 568.488 1000.87 568.824C1000.87 569.176 1000.76 569.464 1000.53 569.688C1000.31 569.896 1000.01 570 999.645 570H988.797C988.445 570 988.149 569.88 987.909 569.64C987.669 569.4 987.549 569.104 987.549 568.752V552.504C987.549 552.136 987.669 551.84 987.909 551.616C988.149 551.376 988.445 551.256 988.797 551.256H999.645C1000.01 551.256 1000.31 551.368 1000.53 551.592C1000.76 551.8 1000.87 552.08 1000.87 552.432C1000.87 552.768 1000.76 553.04 1000.53 553.248C1000.31 553.456 1000.01 553.56 999.645 553.56H990.045V559.392H996.933C997.285 559.392 997.573 559.504 997.797 559.728C998.037 559.936 998.157 560.208 998.157 560.544C998.157 560.88 998.037 561.16 997.797 561.384C997.573 561.592 997.285 561.696 996.933 561.696H990.045V567.696H999.645Z" fill="#30D5AE"/>
</g>
<defs>
<filter id="filter0_d" x="813" y="334" width="290" height="290" filterUnits="userSpaceOnUse" color-interpolation-filters="sRGB">
<feFlood flood-opacity="0" result="BackgroundImageFix"/>
<feColorMatrix in="SourceAlpha" type="matrix" values="0 0 0 0 0 0 0 0 0 0 0 0 0 0 0 0 0 0 127 0"/>
<feOffset dy="8"/>
<feGaussianBlur stdDeviation="4"/>
<feColorMatrix type="matrix" values="0 0 0 0 0 0 0 0 0 0 0 0 0 0 0 0 0 0 0.5 0"/>
<feBlend mode="normal" in2="BackgroundImageFix" result="effect1_dropShadow"/>
<feBlend mode="normal" in="SourceGraphic" in2="effect1_dropShadow" result="shape"/>
</filter>
<linearGradient id="paint0_linear" x1="-7.81932" y1="319.373" x2="1919.99" y2="319.373" gradientUnits="userSpaceOnUse">
<stop stop-color="#30D5AE"/>
<stop offset="1" stop-color="#520060"/>
</linearGradient>
<linearGradient id="paint1_linear" x1="955.59" y1="514.358" x2="1043.21" y2="139.592" gradientUnits="userSpaceOnUse">
<stop stop-color="#30D5AE"/>
<stop offset="1" stop-color="#B299FF"/>
</linearGradient>
<linearGradient id="paint2_linear" x1="964.186" y1="386.398" x2="1204.76" y2="-8.80636" gradientUnits="userSpaceOnUse">
<stop stop-color="#60FFD6"/>
<stop offset="1" stop-color="#F4B1FF"/>
</linearGradient>
<linearGradient id="paint3_linear" x1="-7.81932" y1="319.373" x2="1919.99" y2="319.373" gradientUnits="userSpaceOnUse">
<stop stop-color="#30D5AE"/>
<stop offset="1" stop-color="#520060"/>
</linearGradient>
</defs>
</svg>
